<svg width="35" height="35" viewBox="0 0 35 35" fill="none" xmlns="http://www.w3.org/2000/svg">
<path d="M4.50977 9.67836L14.2676 5.10366C16.3399 4.13211 18.6623 4.13212 20.7346 5.10366L30.4926 9.67843C32.6152 10.6735 32.6151 14.1182 30.4926 15.1133L20.7347 19.688C18.6624 20.6596 16.3401 20.6596 14.2678 19.688L7.29284 16.418" stroke="#3E424A" stroke-width="2.1875" stroke-linecap="round"/>
<path d="M3.64648 21.8743V17.7C3.64648 15.8345 3.64648 14.9017 4.1282 14.1712C4.60991 13.4406 5.46726 13.0732 7.18196 12.3383L8.75065 11.666" stroke="#3E424A" stroke-width="2.1875" stroke-linecap="round" stroke-linejoin="round"/>
<path d="M27.7077 16.7715V24.2461C27.7077 25.7161 26.9734 27.0924 25.6874 27.8046C23.546 28.9905 20.1185 30.6257 17.4993 30.6257C14.8802 30.6257 11.4527 28.9905 9.31129 27.8046C8.02529 27.0924 7.29102 25.7161 7.29102 24.2461V16.7715" stroke="#3E424A" stroke-width="2.1875" stroke-linecap="round"/>
</svg>
