<svg width="77" height="77" viewBox="0 0 77 77" fill="none" xmlns="http://www.w3.org/2000/svg">
<circle cx="28.8783" cy="19.2493" r="12.8333" fill="#EA580C"/>
<ellipse cx="28.8783" cy="54.5423" rx="22.4583" ry="12.8333" fill="#EA580C"/>
<path d="M67.3721 54.5408C67.3721 59.8565 60.8413 64.1657 52.8677 64.1657C55.2169 61.598 56.8322 58.3749 56.8322 54.5452C56.8322 50.7111 55.2132 47.485 52.8596 44.9159C60.8332 44.9159 67.3721 49.225 67.3721 54.5408Z" fill="#EA580C"/>
<path d="M57.7471 19.25C57.7471 24.5657 53.4378 28.875 48.1221 28.875C46.963 28.875 45.8517 28.6701 44.8225 28.2945C46.3403 25.6249 47.2072 22.5369 47.2072 19.2464C47.2072 15.9584 46.3416 12.8725 44.8259 10.2042C45.8541 9.82944 46.9642 9.625 48.1221 9.625C53.4378 9.625 57.7471 13.9343 57.7471 19.25Z" fill="#EA580C"/>
</svg>
