<svg width="89" height="89" viewBox="0 0 89 89" fill="none" xmlns="http://www.w3.org/2000/svg">
<circle cx="44.5" cy="44.5" r="44.5" fill="#1E605E"/>
<path fill-rule="evenodd" clip-rule="evenodd" d="M36.883 34.9786C36.883 32.9584 37.6855 31.0209 39.114 29.5925C40.5425 28.164 42.4799 27.3615 44.5001 27.3615C46.5203 27.3615 48.4577 28.164 49.8862 29.5925C51.3147 31.0209 52.1172 32.9584 52.1172 34.9786C52.1172 36.9988 51.3147 38.9362 49.8862 40.3647C48.4577 41.7932 46.5203 42.5957 44.5001 42.5957C42.4799 42.5957 40.5425 41.7932 39.114 40.3647C37.6855 38.9362 36.883 36.9988 36.883 34.9786ZM36.883 46.4042C34.3577 46.4042 31.9359 47.4074 30.1503 49.193C28.3647 50.9786 27.3616 53.4004 27.3616 55.9256C27.3616 57.4408 27.9635 58.8939 29.0348 59.9652C30.1062 61.0366 31.5593 61.6385 33.0744 61.6385H55.9258C57.4409 61.6385 58.894 61.0366 59.9653 59.9652C61.0367 58.8939 61.6386 57.4408 61.6386 55.9256C61.6386 53.4004 60.6355 50.9786 58.8498 49.193C57.0642 47.4074 54.6424 46.4042 52.1172 46.4042H36.883Z" fill="white"/>
</svg>
