<svg width="36" height="36" viewBox="0 0 36 36" fill="none" xmlns="http://www.w3.org/2000/svg">
<circle cx="18" cy="18" r="18" fill="#122144"/>
<path fill-rule="evenodd" clip-rule="evenodd" d="M14.9178 14.1487C14.9178 13.3315 15.2424 12.5478 15.8202 11.97C16.398 11.3922 17.1817 11.0676 17.9988 11.0676C18.816 11.0676 19.5997 11.3922 20.1775 11.97C20.7553 12.5478 21.0799 13.3315 21.0799 14.1487C21.0799 14.9658 20.7553 15.7495 20.1775 16.3273C19.5997 16.9051 18.816 17.2298 17.9988 17.2298C17.1817 17.2298 16.398 16.9051 15.8202 16.3273C15.2424 15.7495 14.9178 14.9658 14.9178 14.1487ZM14.9178 18.7703C13.8963 18.7703 12.9167 19.1761 12.1944 19.8983C11.4722 20.6206 11.0664 21.6002 11.0664 22.6217C11.0664 23.2345 11.3099 23.8223 11.7432 24.2556C12.1766 24.689 12.7644 24.9325 13.3772 24.9325H22.6205C23.2333 24.9325 23.8211 24.689 24.2545 24.2556C24.6878 23.8223 24.9313 23.2345 24.9313 22.6217C24.9313 21.6002 24.5255 20.6206 23.8032 19.8983C23.081 19.1761 22.1014 18.7703 21.0799 18.7703H14.9178Z" fill="white"/>
</svg>
