<svg width="151" height="151" viewBox="0 0 151 151" fill="none" xmlns="http://www.w3.org/2000/svg">
<path d="M36.6967 101.99L31.3934 107.293L42 117.9L47.3033 112.596L42 107.293L36.6967 101.99ZM114.793 42.0004C114.793 37.8583 111.435 34.5004 107.293 34.5004L39.7925 34.5004C35.6504 34.5004 32.2925 37.8583 32.2925 42.0004C32.2925 46.1426 35.6504 49.5004 39.7925 49.5004L99.7925 49.5004L99.7925 109.5C99.7925 113.643 103.15 117 107.293 117C111.435 117 114.793 113.643 114.793 109.5L114.793 42.0004ZM42 107.293L47.3033 112.596L112.596 47.3037L107.293 42.0004L101.989 36.6971L36.6967 101.99L42 107.293Z" fill="#F06743"/>
</svg>
