<svg width="20" height="20" viewBox="0 0 20 20" fill="none" xmlns="http://www.w3.org/2000/svg">
<path d="M16.7353 2.51658L16.7571 3.1412L16.7353 2.51658ZM13.7503 2.90799L13.5711 2.30925V2.30925L13.7503 2.90799ZM11.3952 4.00408L11.0821 3.46315L11.0821 3.46315L11.3952 4.00408ZM3.31899 2.5642L3.28065 3.18802L3.31899 2.5642ZM5.83366 2.90799L5.99313 2.30368L5.83366 2.90799ZM8.56887 4.06467L8.27671 4.61719L8.56887 4.06467ZM11.3566 16.7262L11.6506 17.2777H11.6506L11.3566 16.7262ZM14.167 15.5296L14.0075 14.9253L14.167 15.5296ZM16.6546 15.1875L16.6936 15.8113L16.6546 15.1875ZM8.64401 16.7262L8.35001 17.2777H8.35001L8.64401 16.7262ZM5.83366 15.5296L5.99313 14.9253L5.83366 15.5296ZM3.34604 15.1875L3.30703 15.8113H3.30703L3.34604 15.1875ZM1.66699 13.4548H2.29199V4.16663H1.66699H1.04199V13.4548H1.66699ZM18.3337 13.4548H18.9587V4.11278H18.3337H17.7087V13.4548H18.3337ZM16.7353 2.51658L16.7135 1.89196C15.7649 1.925 14.525 2.02368 13.5711 2.30925L13.7503 2.90799L13.9296 3.50674C14.7205 3.26995 15.8247 3.17368 16.7571 3.1412L16.7353 2.51658ZM13.7503 2.90799L13.5711 2.30925C12.7419 2.55749 11.8092 3.04236 11.0821 3.46315L11.3952 4.00408L11.7083 4.54502C12.417 4.13486 13.2461 3.71136 13.9296 3.50674L13.7503 2.90799ZM3.31899 2.5642L3.28065 3.18802C4.08564 3.23749 4.99735 3.3337 5.67419 3.51231L5.83366 2.90799L5.99313 2.30368C5.19245 2.0924 4.17963 1.99091 3.35733 1.94037L3.31899 2.5642ZM5.83366 2.90799L5.67419 3.51231C6.47596 3.72388 7.46271 4.18676 8.27671 4.61719L8.56887 4.06467L8.86102 3.51216C8.03146 3.07351 6.94004 2.55355 5.99313 2.30368L5.83366 2.90799ZM11.3566 16.7262L11.6506 17.2777C12.4765 16.8375 13.4993 16.3522 14.3265 16.1339L14.167 15.5296L14.0075 14.9253C13.0322 15.1826 11.9026 15.7269 11.0626 16.1746L11.3566 16.7262ZM14.167 15.5296L14.3265 16.1339C14.9956 15.9573 15.8947 15.8612 16.6936 15.8113L16.6546 15.1875L16.6156 14.5637C15.7989 14.6148 14.7996 14.7163 14.0075 14.9253L14.167 15.5296ZM8.64401 16.7262L8.938 16.1746C8.09805 15.7269 6.96841 15.1826 5.99313 14.9253L5.83366 15.5296L5.67419 16.1339C6.50133 16.3522 7.52416 16.8375 8.35001 17.2777L8.64401 16.7262ZM5.83366 15.5296L5.99313 14.9253C5.20109 14.7163 4.20179 14.6148 3.38506 14.5637L3.34604 15.1875L3.30703 15.8113C4.10599 15.8612 5.00504 15.9573 5.67419 16.1339L5.83366 15.5296ZM18.3337 13.4548H17.7087C17.7087 14.0262 17.2351 14.5249 16.6156 14.5637L16.6546 15.1875L16.6936 15.8113C17.9222 15.7344 18.9587 14.735 18.9587 13.4548H18.3337ZM18.3337 4.11278H18.9587C18.9587 2.89336 17.9876 1.84758 16.7135 1.89196L16.7353 2.51658L16.7571 3.1412C17.2694 3.12336 17.7087 3.54479 17.7087 4.11278H18.3337ZM1.66699 13.4548H1.04199C1.04199 14.735 2.07848 15.7344 3.30703 15.8113L3.34604 15.1875L3.38506 14.5637C2.76558 14.5249 2.29199 14.0262 2.29199 13.4548H1.66699ZM11.3566 16.7262L11.0626 16.1746C10.4024 16.5266 9.59824 16.5266 8.938 16.1746L8.64401 16.7262L8.35001 17.2777C9.37776 17.8255 10.6229 17.8255 11.6506 17.2777L11.3566 16.7262ZM11.3952 4.00408L11.0821 3.46315C10.4004 3.8577 9.55171 3.87738 8.86102 3.51216L8.56887 4.06467L8.27671 4.61719C9.35357 5.1866 10.6595 5.152 11.7083 4.54502L11.3952 4.00408ZM1.66699 4.16663H2.29199C2.29199 3.58564 2.75235 3.15555 3.28065 3.18802L3.31899 2.5642L3.35733 1.94037C2.0588 1.86057 1.04199 2.91733 1.04199 4.16663H1.66699Z" fill="#7B818C"/>
<path d="M10 4.87891V17.5005" stroke="#7B818C" stroke-width="1.25"/>
<path d="M4.16699 7.5L7.50033 8.33333" stroke="#7B818C" stroke-width="1.25" stroke-linecap="round"/>
<path d="M15.833 7.5L12.4997 8.33333" stroke="#7B818C" stroke-width="1.25" stroke-linecap="round"/>
<path d="M4.16699 10.834L7.50033 11.6673" stroke="#7B818C" stroke-width="1.25" stroke-linecap="round"/>
<path d="M15.833 10.834L12.4997 11.6673" stroke="#7B818C" stroke-width="1.25" stroke-linecap="round"/>
</svg>
