<svg width="22" height="22" viewBox="0 0 22 22" fill="none" xmlns="http://www.w3.org/2000/svg">
<path fill-rule="evenodd" clip-rule="evenodd" d="M5.11171 4.02376C3.6027 4.71353 2.49721 6.35418 2.49721 8.3106C2.49721 10.3093 3.31513 11.85 4.48767 13.1703C5.45406 14.2585 6.6239 15.1603 7.7648 16.0399C8.03577 16.2488 8.30512 16.4565 8.56972 16.6651C9.04819 17.0422 9.47502 17.3733 9.88642 17.6137C10.298 17.8542 10.6294 17.9641 10.911 17.9641C11.1926 17.9641 11.5239 17.8542 11.9355 17.6137C12.3469 17.3733 12.7738 17.0422 13.2522 16.6651C13.5168 16.4565 13.7862 16.2488 14.0572 16.0399C15.1981 15.1603 16.3679 14.2585 17.3343 13.1703C18.5068 11.85 19.3247 10.3093 19.3247 8.3106C19.3247 6.35418 18.2193 4.71353 16.7102 4.02376C15.2442 3.35364 13.2744 3.5311 11.4025 5.47597C11.2739 5.60958 11.0964 5.68508 10.911 5.68508C10.7255 5.68508 10.5481 5.60958 10.4195 5.47597C8.54754 3.5311 6.57772 3.35364 5.11171 4.02376ZM10.911 4.05525C8.80794 2.17368 6.45301 1.91047 4.54449 2.78286C2.52878 3.70424 1.13281 5.84371 1.13281 8.3106C1.13281 10.7352 2.14292 12.5848 3.46749 14.0763C4.52822 15.2707 5.82653 16.2704 6.97317 17.1532C7.2331 17.3534 7.48524 17.5475 7.72504 17.7365C8.19097 18.1038 8.69115 18.4955 9.19804 18.7917C9.70472 19.0878 10.283 19.3285 10.911 19.3285C11.539 19.3285 12.1172 19.0878 12.6239 18.7917C13.1308 18.4955 13.631 18.1038 14.0969 17.7365C14.3367 17.5475 14.5889 17.3534 14.8488 17.1532C15.9954 16.2704 17.2937 15.2707 18.3545 14.0763C19.679 12.5848 20.6891 10.7352 20.6891 8.3106C20.6891 5.84371 19.2932 3.70424 17.2775 2.78286C15.3689 1.91047 13.014 2.17368 10.911 4.05525Z" fill="#141619"/>
</svg>
