<svg width="23" height="23" viewBox="0 0 23 23" fill="none" xmlns="http://www.w3.org/2000/svg">
<path fill-rule="evenodd" clip-rule="evenodd" d="M2.07708 2.11851C1.71611 1.9916 1.32061 2.18134 1.1937 2.54231C1.0668 2.90327 1.25654 3.29877 1.6175 3.42568L1.85879 3.51051C2.47548 3.72733 2.88078 3.87101 3.179 4.01734C3.4591 4.15478 3.58258 4.26602 3.66392 4.38506C3.7473 4.50707 3.81168 4.67466 3.84801 5.0103C3.88603 5.36151 3.88697 5.81896 3.88697 6.50247V9.01655C3.88697 10.3583 3.89956 11.3258 4.02616 12.065C4.16133 12.8541 4.43118 13.4191 4.93576 13.9513C5.48433 14.5299 6.17972 14.7818 7.00761 14.8992C7.80039 15.0116 8.80712 15.0116 10.0502 15.0116L15.0437 15.0116C15.7288 15.0116 16.3052 15.0116 16.7717 14.9546C17.2666 14.894 17.7179 14.7616 18.1119 14.4405C18.5059 14.1195 18.7266 13.7042 18.8859 13.2317C19.0359 12.7864 19.1523 12.2218 19.2906 11.5508L19.7607 9.2698L19.7616 9.26555L19.7712 9.21725C19.9233 8.45527 20.0513 7.8143 20.0831 7.29875C20.1165 6.75726 20.0549 6.22333 19.7022 5.7648C19.4851 5.48266 19.18 5.32295 18.9024 5.22541C18.6193 5.12594 18.2991 5.06839 17.9761 5.03227C17.3414 4.96133 16.5704 4.96134 15.8142 4.96135L5.23545 4.96135C5.23241 4.9274 5.22913 4.89401 5.22557 4.86119C5.17594 4.40266 5.0684 3.98447 4.80793 3.6033C4.54542 3.21915 4.19638 2.97313 3.78936 2.77341C3.4087 2.58663 2.925 2.41659 2.35549 2.21639L2.07708 2.11851ZM5.27257 6.34695H15.7854C16.5765 6.34695 17.2727 6.34788 17.8221 6.4093C18.0951 6.43982 18.2995 6.48222 18.443 6.53267C18.5604 6.5739 18.6001 6.60757 18.6058 6.61245C18.6057 6.61234 18.6061 6.61265 18.6058 6.61245C18.6625 6.68765 18.7242 6.82408 18.7001 7.21339C18.6748 7.62313 18.5672 8.17022 18.4032 8.99229L18.4028 8.99434L17.942 11.2299C17.7929 11.953 17.6926 12.4337 17.5728 12.7892C17.4591 13.1267 17.3523 13.2722 17.2366 13.3664C17.1209 13.4607 16.9569 13.536 16.6034 13.5792C16.231 13.6248 15.74 13.626 15.0016 13.626H10.1032C8.79443 13.626 7.88633 13.6244 7.20215 13.5273C6.54185 13.4337 6.19303 13.2635 5.94127 12.998C5.64552 12.6861 5.48601 12.3806 5.39188 11.8311C5.2892 11.2315 5.27258 10.392 5.27258 9.01655L5.27257 6.34695Z" fill="#141619"/>
<path fill-rule="evenodd" clip-rule="evenodd" d="M6.92784 20.0922C5.77997 20.0922 4.84943 19.1616 4.84943 18.0137C4.84943 16.8659 5.77997 15.9353 6.92784 15.9353C8.07571 15.9353 9.00625 16.8659 9.00625 18.0137C9.00625 19.1616 8.07571 20.0922 6.92784 20.0922ZM6.23504 18.0137C6.23504 18.3964 6.54522 18.7066 6.92784 18.7066C7.31046 18.7066 7.62064 18.3964 7.62064 18.0137C7.62064 17.6311 7.31046 17.3209 6.92784 17.3209C6.54522 17.3209 6.23504 17.6311 6.23504 18.0137Z" fill="#141619"/>
<path fill-rule="evenodd" clip-rule="evenodd" d="M15.2415 20.0922C14.0936 20.0922 13.1631 19.1617 13.1631 18.0138C13.1631 16.8659 14.0936 15.9354 15.2415 15.9354C16.3893 15.9354 17.3199 16.8659 17.3199 18.0138C17.3199 19.1617 16.3893 20.0922 15.2415 20.0922ZM14.5487 18.0138C14.5487 18.3964 14.8588 18.7066 15.2415 18.7066C15.6241 18.7066 15.9343 18.3964 15.9343 18.0138C15.9343 17.6312 15.6241 17.321 15.2415 17.321C14.8588 17.321 14.5487 17.6312 14.5487 18.0138Z" fill="#141619"/>
</svg>
