<svg width="56" height="56" viewBox="0 0 56 56" fill="none" xmlns="http://www.w3.org/2000/svg">
<rect x="0.491129" y="0.491129" width="54.112" height="55.0177" rx="27.056" stroke="#141619" stroke-width="0.982258"/>
<path fill-rule="evenodd" clip-rule="evenodd" d="M17.9331 18.4288C17.5479 18.2933 17.1258 18.4958 16.9903 18.8811C16.8549 19.2664 17.0574 19.6885 17.4426 19.8239L17.7002 19.9145C18.3584 20.1459 18.7909 20.2992 19.1092 20.4554C19.4082 20.6021 19.54 20.7208 19.6268 20.8479C19.7158 20.9781 19.7845 21.157 19.8233 21.5152C19.8639 21.8901 19.8649 22.3783 19.8649 23.1078V25.7911C19.8649 27.2232 19.8783 28.2558 20.0134 29.0448C20.1577 29.887 20.4457 30.4901 20.9842 31.0581C21.5697 31.6756 22.3119 31.9445 23.1956 32.0698C24.0417 32.1898 25.1162 32.1898 26.443 32.1897L31.7726 32.1897C32.5038 32.1898 33.119 32.1898 33.6169 32.1289C34.1451 32.0642 34.6268 31.9229 35.0473 31.5802C35.4678 31.2376 35.7034 30.7943 35.8734 30.29C36.0335 29.8147 36.1577 29.2122 36.3053 28.496L36.8071 26.0614L36.808 26.0569L36.8183 26.0054C36.9806 25.1921 37.1172 24.508 37.1512 23.9577C37.1869 23.3798 37.1211 22.8099 36.7446 22.3205C36.5129 22.0194 36.1873 21.8489 35.891 21.7448C35.5888 21.6386 35.2472 21.5772 34.9023 21.5387C34.2249 21.463 33.402 21.463 32.595 21.463L21.3041 21.463C21.3009 21.4267 21.2974 21.3911 21.2936 21.3561C21.2406 20.8667 21.1258 20.4203 20.8478 20.0135C20.5676 19.6035 20.1951 19.3409 19.7607 19.1278C19.3544 18.9284 18.8381 18.7469 18.2303 18.5332L17.9331 18.4288ZM21.3437 22.9419H32.5642C33.4085 22.9419 34.1516 22.9428 34.738 23.0084C35.0294 23.041 35.2475 23.0862 35.4007 23.1401C35.526 23.1841 35.5684 23.22 35.5745 23.2252C35.5744 23.2251 35.5748 23.2254 35.5745 23.2252C35.635 23.3055 35.7008 23.4511 35.6751 23.8666C35.6481 24.3039 35.5333 24.8878 35.3582 25.7652L35.3577 25.7674L34.8659 28.1535C34.7069 28.9253 34.5998 29.4383 34.4719 29.8178C34.3505 30.178 34.2365 30.3332 34.1131 30.4338C33.9896 30.5344 33.8146 30.6148 33.4373 30.6609C33.0398 30.7096 32.5157 30.7109 31.7277 30.7109H26.4995C25.1026 30.7109 24.1334 30.7091 23.4032 30.6056C22.6984 30.5056 22.3261 30.324 22.0574 30.0406C21.7418 29.7077 21.5715 29.3817 21.4711 28.7951C21.3615 28.1552 21.3437 27.2592 21.3437 25.7911L21.3437 22.9419Z" fill="#141619"/>
<path fill-rule="evenodd" clip-rule="evenodd" d="M23.1104 37.6123C21.8853 37.6123 20.8921 36.6191 20.8921 35.394C20.8921 34.1688 21.8853 33.1757 23.1104 33.1757C24.3356 33.1757 25.3287 34.1688 25.3287 35.394C25.3287 36.6191 24.3356 37.6123 23.1104 37.6123ZM22.371 35.394C22.371 35.8023 22.702 36.1334 23.1104 36.1334C23.5188 36.1334 23.8499 35.8023 23.8499 35.394C23.8499 34.9856 23.5188 34.6545 23.1104 34.6545C22.702 34.6545 22.371 34.9856 22.371 35.394Z" fill="#141619"/>
<path fill-rule="evenodd" clip-rule="evenodd" d="M31.9837 37.6123C30.7585 37.6123 29.7653 36.6192 29.7653 35.394C29.7653 34.1689 30.7585 33.1757 31.9837 33.1757C33.2088 33.1757 34.202 34.1689 34.202 35.394C34.202 36.6192 33.2088 37.6123 31.9837 37.6123ZM31.2442 35.394C31.2442 35.8024 31.5753 36.1335 31.9837 36.1335C32.392 36.1335 32.7231 35.8024 32.7231 35.394C32.7231 34.9857 32.392 34.6546 31.9837 34.6546C31.5753 34.6546 31.2442 34.9857 31.2442 35.394Z" fill="#141619"/>
</svg>
