<svg width="71" height="71" viewBox="0 0 71 71" fill="none" xmlns="http://www.w3.org/2000/svg">
<rect x="0.622681" y="0.622681" width="69.6688" height="69.7546" rx="34.8344" stroke="#141619" stroke-width="1.24536"/>
<path fill-rule="evenodd" clip-rule="evenodd" d="M27.1997 25.6961C25.0525 26.6776 23.4795 29.012 23.4795 31.7959C23.4795 34.6399 24.6433 36.832 26.3117 38.7107C27.6868 40.2591 29.3514 41.5424 30.9748 42.7939C31.3604 43.0912 31.7436 43.3867 32.1201 43.6835C32.8009 44.2202 33.4083 44.6912 33.9936 45.0333C34.5793 45.3755 35.0508 45.5318 35.4515 45.5318C35.8522 45.5318 36.3237 45.3755 36.9094 45.0333C37.4947 44.6912 38.1021 44.2202 38.7829 43.6835C39.1594 43.3867 39.5426 43.0912 39.9282 42.7939C41.5516 41.5424 43.2162 40.2591 44.5913 38.7107C46.2597 36.832 47.4235 34.6399 47.4235 31.7959C47.4235 29.012 45.8505 26.6776 43.7033 25.6961C41.6173 24.7426 38.8145 24.9951 36.1509 27.7624C35.9679 27.9526 35.7154 28.06 35.4515 28.06C35.1876 28.06 34.9351 27.9526 34.7521 27.7624C32.0885 24.9951 29.2857 24.7426 27.1997 25.6961ZM35.4515 25.7409C32.4591 23.0636 29.1082 22.6891 26.3926 23.9304C23.5244 25.2414 21.5381 28.2857 21.5381 31.7959C21.5381 35.2458 22.9754 37.8776 24.8601 39.9999C26.3694 41.6994 28.2168 43.1218 29.8484 44.3781C30.2182 44.6629 30.577 44.9391 30.9182 45.2081C31.5812 45.7307 32.2929 46.288 33.0142 46.7095C33.7351 47.1308 34.5579 47.4732 35.4515 47.4732C36.3451 47.4732 37.1679 47.1308 37.8888 46.7095C38.6101 46.288 39.3218 45.7307 39.9848 45.2081C40.326 44.9391 40.6848 44.6629 41.0546 44.3781C42.6862 43.1218 44.5336 41.6994 46.0429 39.9999C47.9276 37.8776 49.3649 35.2458 49.3649 31.7959C49.3649 28.2857 47.3786 25.2414 44.5104 23.9304C41.7948 22.6891 38.4439 23.0636 35.4515 25.7409Z" fill="#141619"/>
</svg>
