<svg width="32" height="32" viewBox="0 0 32 32" fill="none" xmlns="http://www.w3.org/2000/svg">
<path d="M15.9996 3C14.8526 2.99991 13.7169 3.22576 12.6572 3.66466C11.5975 4.10355 10.6346 4.74689 9.82356 5.55793C9.01251 6.36898 8.36918 7.33184 7.93028 8.39154C7.49139 9.45124 7.26554 10.587 7.26563 11.734C7.26563 18.5693 13.9336 26.7947 15.681 28.8153C15.7748 28.9227 15.9074 28.9886 16.0496 28.9985C16.1919 29.0085 16.3323 28.9618 16.4403 28.8687L16.4936 28.8153C18.2176 26.7867 24.733 18.5693 24.733 11.7333C24.733 10.5865 24.5071 9.45081 24.0682 8.39123C23.6293 7.33165 22.986 6.3689 22.175 5.55793C21.3641 4.74697 20.4013 4.10368 19.3417 3.66479C18.2822 3.22589 17.1465 3 15.9996 3ZM15.9996 14.104C15.4138 14.104 14.8411 13.9303 14.354 13.6048C13.8669 13.2793 13.4873 12.8167 13.2631 12.2755C13.0389 11.7343 12.9802 11.1387 13.0945 10.5641C13.2088 9.98957 13.4909 9.46179 13.9052 9.04755C14.3194 8.63331 14.8472 8.3512 15.4218 8.23691C15.9963 8.12263 16.5919 8.18128 17.1331 8.40547C17.6744 8.62966 18.137 9.0093 18.4624 9.4964C18.7879 9.9835 18.9616 10.5562 18.9616 11.142V11.1493C18.9597 11.9336 18.6468 12.6851 18.0915 13.239C17.5362 13.7929 16.7839 14.104 15.9996 14.104Z" stroke="#122144" stroke-width="2" stroke-linecap="round" stroke-linejoin="round"/>
</svg>
