<svg width="34" height="34" viewBox="0 0 34 34" fill="none" xmlns="http://www.w3.org/2000/svg">
<path d="M28.4482 4.27701L28.4851 5.33887H28.4851L28.4482 4.27701ZM23.3737 4.94242L23.069 3.92455L23.3737 4.94242ZM19.37 6.80577L18.8378 5.88617V5.88617L19.37 6.80577ZM5.64043 4.35796L5.57526 5.41846L5.64043 4.35796ZM9.91536 4.94242L10.1865 3.91508L10.1865 3.91508L9.91536 4.94242ZM14.5652 6.90877L14.0686 7.84804L14.5652 6.90877ZM19.3044 28.4333L19.8042 29.3709L19.3044 28.4333ZM24.082 26.3991L23.8109 25.3718H23.8109L24.082 26.3991ZM28.311 25.8175L28.3773 26.878L28.311 25.8175ZM14.693 28.4333L14.1932 29.3709H14.1932L14.693 28.4333ZM9.91536 26.3991L10.1865 25.3718H10.1865L9.91536 26.3991ZM5.68641 25.8175L5.62009 26.878L5.68641 25.8175ZM2.83203 22.8719H3.89453V7.08209H2.83203H1.76953V22.8719H2.83203ZM31.1654 22.8719H32.2279V6.99056H31.1654H30.1029V22.8719H31.1654ZM28.4482 4.27701L28.4112 3.21516C26.7985 3.27133 24.6906 3.43909 23.069 3.92455L23.3737 4.94242L23.6784 5.96028C25.0231 5.55774 26.9001 5.39408 28.4851 5.33887L28.4482 4.27701ZM23.3737 4.94242L23.069 3.92455C21.6593 4.34656 20.0738 5.17084 18.8378 5.88617L19.37 6.80577L19.9022 7.72537C21.107 7.02809 22.5164 6.30815 23.6784 5.96028L23.3737 4.94242ZM5.64043 4.35796L5.57526 5.41846C6.94373 5.50257 8.49364 5.66612 9.64427 5.96975L9.91536 4.94242L10.1865 3.91508C8.82531 3.5559 7.10352 3.38338 5.70561 3.29746L5.64043 4.35796ZM9.91536 4.94242L9.64427 5.96975C11.0073 6.32942 12.6847 7.11632 14.0686 7.84804L14.5652 6.90877L15.0619 5.9695C13.6516 5.22379 11.7962 4.33987 10.1865 3.91508L9.91536 4.94242ZM19.3044 28.4333L19.8042 29.3709C21.2082 28.6225 22.947 27.7975 24.3531 27.4265L24.082 26.3991L23.8109 25.3718C22.1529 25.8093 20.2326 26.7345 18.8046 27.4957L19.3044 28.4333ZM24.082 26.3991L24.3531 27.4265C25.4907 27.1263 27.0191 26.9629 28.3773 26.878L28.311 25.8175L28.2447 24.7571C26.8562 24.8439 25.1574 25.0165 23.8109 25.3718L24.082 26.3991ZM14.693 28.4333L15.1928 27.4957C13.7648 26.7345 11.8444 25.8093 10.1865 25.3718L9.91536 26.3991L9.64427 27.4265C11.0504 27.7975 12.7892 28.6225 14.1932 29.3709L14.693 28.4333ZM9.91536 26.3991L10.1865 25.3718C8.84001 25.0165 7.14119 24.8439 5.75274 24.7571L5.68641 25.8175L5.62009 26.878C6.97833 26.9629 8.50672 27.1263 9.64427 27.4265L9.91536 26.3991ZM31.1654 22.8719H30.1029C30.1029 23.8434 29.2978 24.6912 28.2447 24.7571L28.311 25.8175L28.3773 26.878C30.4658 26.7473 32.2279 25.0482 32.2279 22.8719H31.1654ZM31.1654 6.99056H32.2279C32.2279 4.91754 30.577 3.13971 28.4112 3.21516L28.4482 4.27701L28.4851 5.33887C29.3561 5.30853 30.1029 6.02498 30.1029 6.99056H31.1654ZM2.83203 22.8719H1.76953C1.76953 25.0482 3.53156 26.7473 5.62009 26.878L5.68641 25.8175L5.75274 24.7571C4.69963 24.6912 3.89453 23.8434 3.89453 22.8719H2.83203ZM19.3044 28.4333L18.8046 27.4957C17.6822 28.094 16.3151 28.094 15.1928 27.4957L14.693 28.4333L14.1932 29.3709C15.9403 30.3023 18.0571 30.3023 19.8042 29.3709L19.3044 28.4333ZM19.37 6.80577L18.8378 5.88617C17.6788 6.55691 16.236 6.59037 15.0619 5.9695L14.5652 6.90877L14.0686 7.84804C15.8992 8.81605 18.1193 8.75722 19.9022 7.72537L19.37 6.80577ZM2.83203 7.08209H3.89453C3.89453 6.09441 4.67714 5.36326 5.57526 5.41846L5.64043 4.35796L5.70561 3.29746C3.4981 3.16179 1.76953 4.95829 1.76953 7.08209H2.83203Z" fill="#3E424A"/>
<path d="M17 7.79297V29.043" stroke="#3E424A" stroke-width="2.125"/>
</svg>
