<svg width="32" height="32" viewBox="0 0 32 32" fill="none" xmlns="http://www.w3.org/2000/svg">
<path d="M11.179 3.30561L10.0318 3.65121C9.01033 3.95925 8.09811 4.55269 7.40251 5.36167C6.70691 6.17065 6.25689 7.1615 6.10541 8.21761C5.63021 11.5264 6.69261 15.3952 9.25421 19.832C11.8094 24.2576 14.6222 27.1088 17.7182 28.3568C18.713 28.7577 19.8019 28.8646 20.8556 28.6646C21.9094 28.4646 22.8835 27.9663 23.6622 27.2288L24.5294 26.4064C25.0925 25.8735 25.443 25.1542 25.5157 24.3823C25.5884 23.6104 25.3783 22.8383 24.9246 22.2096L22.755 19.2016C22.4617 18.7955 22.0486 18.4914 21.5738 18.3319C21.0989 18.1723 20.586 18.1654 20.107 18.312L16.8254 19.3152L16.7406 19.3312C16.379 19.384 15.5438 18.6016 14.5038 16.8C13.4158 14.9152 13.1918 13.8128 13.491 13.528L15.1598 11.9712C15.7695 11.4019 16.1859 10.6563 16.3508 9.8387C16.5158 9.02106 16.421 8.17232 16.0798 7.41121L15.0206 5.05761C14.7021 4.34935 14.1369 3.78109 13.4304 3.45875C12.7239 3.1364 11.9227 3.08197 11.179 3.30561ZM13.5646 5.71361L14.6206 8.06721C14.8255 8.52371 14.8827 9.03286 14.784 9.52343C14.6853 10.014 14.4357 10.4615 14.0702 10.8032L12.3966 12.3616C11.3246 13.376 11.6798 15.1072 13.1198 17.6C14.4734 19.9456 15.7086 21.104 17.0366 20.9024L17.235 20.8608L20.5758 19.8416C20.7355 19.7926 20.9065 19.7947 21.0649 19.8478C21.2233 19.9009 21.3611 20.0022 21.459 20.1376L23.6286 23.1456C23.8558 23.4599 23.9611 23.8461 23.9249 24.2322C23.8887 24.6183 23.7135 24.9782 23.4318 25.2448L22.563 26.0672C22.0068 26.5936 21.3111 26.9493 20.5586 27.092C19.8061 27.2347 19.0285 27.1583 18.3182 26.872C15.6014 25.7776 13.0334 23.1744 10.6414 19.032C8.24301 14.88 7.27181 11.3488 7.68941 8.44481C7.79751 7.69029 8.11893 6.98237 8.61584 6.4044C9.11274 5.82642 9.76444 5.40245 10.4942 5.18241L11.6414 4.83681C12.0133 4.72504 12.4132 4.75237 12.7665 4.9137C13.1198 5.07503 13.4023 5.35933 13.5614 5.71361" fill="#19B08F"/>
<path d="M11.179 3.30561L10.0318 3.65121C9.01033 3.95925 8.09811 4.55269 7.40251 5.36167C6.70691 6.17065 6.25689 7.1615 6.10541 8.21761C5.63021 11.5264 6.69261 15.3952 9.25421 19.832C11.8094 24.2576 14.6222 27.1088 17.7182 28.3568C18.713 28.7577 19.8019 28.8646 20.8556 28.6646C21.9094 28.4646 22.8835 27.9663 23.6622 27.2288L24.5294 26.4064C25.0925 25.8735 25.443 25.1542 25.5157 24.3823C25.5884 23.6104 25.3783 22.8383 24.9246 22.2096L22.755 19.2016C22.4617 18.7955 22.0486 18.4914 21.5738 18.3319C21.0989 18.1723 20.586 18.1654 20.107 18.312L16.8254 19.3152L16.7406 19.3312C16.379 19.384 15.5438 18.6016 14.5038 16.8C13.4158 14.9152 13.1918 13.8128 13.491 13.528L15.1598 11.9712C15.7695 11.4019 16.1859 10.6563 16.3508 9.8387C16.5158 9.02106 16.421 8.17232 16.0798 7.41121L15.0206 5.05761C14.7021 4.34935 14.1369 3.78109 13.4304 3.45875C12.7239 3.1364 11.9227 3.08197 11.179 3.30561ZM13.5646 5.71361L14.6206 8.06721C14.8255 8.52371 14.8827 9.03286 14.784 9.52343C14.6853 10.014 14.4357 10.4615 14.0702 10.8032L12.3966 12.3616C11.3246 13.376 11.6798 15.1072 13.1198 17.6C14.4734 19.9456 15.7086 21.104 17.0366 20.9024L17.235 20.8608L20.5758 19.8416C20.7355 19.7926 20.9065 19.7947 21.0649 19.8478C21.2233 19.9009 21.3611 20.0022 21.459 20.1376L23.6286 23.1456C23.8558 23.4599 23.9611 23.8461 23.9249 24.2322C23.8887 24.6183 23.7135 24.9782 23.4318 25.2448L22.563 26.0672C22.0068 26.5936 21.3111 26.9493 20.5586 27.092C19.8061 27.2347 19.0285 27.1583 18.3182 26.872C15.6014 25.7776 13.0334 23.1744 10.6414 19.032C8.24301 14.88 7.27181 11.3488 7.68941 8.44481C7.79751 7.69029 8.11893 6.98237 8.61584 6.4044C9.11274 5.82642 9.76444 5.40245 10.4942 5.18241L11.6414 4.83681C12.0133 4.72504 12.4132 4.75237 12.7665 4.9137C13.1198 5.07503 13.4023 5.35933 13.5614 5.71361" fill="#F17E22"/>
</svg>
