<svg width="19" height="20" viewBox="0 0 19 20" fill="none" xmlns="http://www.w3.org/2000/svg">
<path d="M0.875 8.74956C0.875 5.6852 0.875 4.15303 1.23679 3.63757C1.59857 3.12211 3.03923 2.62897 5.92054 1.64269L6.46949 1.45478C7.97144 0.940656 8.72242 0.683594 9.5 0.683594C10.2776 0.683594 11.0286 0.940656 12.5305 1.45478L13.0795 1.64269C15.9608 2.62897 17.4014 3.12211 17.7632 3.63757C18.125 4.15303 18.125 5.6852 18.125 8.74956C18.125 9.21242 18.125 9.71437 18.125 10.2586C18.125 15.6618 14.0627 18.2839 11.5139 19.3972C10.8225 19.6993 10.4768 19.8503 9.5 19.8503C8.52321 19.8503 8.17751 19.6992 7.48612 19.3972C4.93734 18.2839 0.875 15.6618 0.875 10.2586C0.875 9.71437 0.875 9.21242 0.875 8.74956Z" fill="#C5C9D1"/>
</svg>
