<svg width="77" height="77" viewBox="0 0 77 77" fill="none" xmlns="http://www.w3.org/2000/svg">
<path fill-rule="evenodd" clip-rule="evenodd" d="M6.4165 22.4583C6.4165 16.4086 6.4165 13.3838 8.2959 11.5044C10.1753 9.625 13.2001 9.625 19.2498 9.625H57.7498C63.7995 9.625 66.8244 9.625 68.7038 11.5044C70.5832 13.3838 70.5832 16.4086 70.5832 22.4583C70.5832 28.508 70.5832 31.5329 68.7038 33.4123C66.8244 35.2917 63.7995 35.2917 57.7498 35.2917H19.2498C13.2001 35.2917 10.1753 35.2917 8.2959 33.4123C6.4165 31.5329 6.4165 28.508 6.4165 22.4583ZM19.2498 20.0521C17.9209 20.0521 16.8436 21.1294 16.8436 22.4583C16.8436 23.7873 17.9209 24.8646 19.2498 24.8646H25.6665C26.9954 24.8646 28.0728 23.7873 28.0728 22.4583C28.0728 21.1294 26.9954 20.0521 25.6665 20.0521H19.2498ZM32.8853 22.4583C32.8853 21.1294 33.9626 20.0521 35.2915 20.0521H57.7498C59.0788 20.0521 60.1561 21.1294 60.1561 22.4583C60.1561 23.7873 59.0788 24.8646 57.7498 24.8646H35.2915C33.9626 24.8646 32.8853 23.7873 32.8853 22.4583Z" fill="#EA580C"/>
<path fill-rule="evenodd" clip-rule="evenodd" d="M6.4165 54.5417C6.4165 48.492 6.4165 45.4671 8.2959 43.5877C10.1753 41.7083 13.2001 41.7083 19.2498 41.7083H57.7498C63.7995 41.7083 66.8244 41.7083 68.7038 43.5877C70.5832 45.4671 70.5832 48.492 70.5832 54.5417C70.5832 60.5914 70.5832 63.6162 68.7038 65.4956C66.8244 67.375 63.7995 67.375 57.7498 67.375H19.2498C13.2001 67.375 10.1753 67.375 8.2959 65.4956C6.4165 63.6162 6.4165 60.5914 6.4165 54.5417ZM19.2498 52.1354C17.9209 52.1354 16.8436 53.2127 16.8436 54.5417C16.8436 55.8706 17.9209 56.9479 19.2498 56.9479H25.6665C26.9954 56.9479 28.0728 55.8706 28.0728 54.5417C28.0728 53.2127 26.9954 52.1354 25.6665 52.1354H19.2498ZM32.8853 54.5417C32.8853 53.2127 33.9626 52.1354 35.2915 52.1354H57.7498C59.0788 52.1354 60.1561 53.2127 60.1561 54.5417C60.1561 55.8706 59.0788 56.9479 57.7498 56.9479H35.2915C33.9626 56.9479 32.8853 55.8706 32.8853 54.5417Z" fill="#EA580C"/>
</svg>
