<svg width="89" height="89" viewBox="0 0 89 89" fill="none" xmlns="http://www.w3.org/2000/svg">
<path d="M33.9423 87.7295C42.7172 89.8725 51.9365 89.2944 60.375 86.0721C68.8134 82.8497 76.0714 77.1357 81.1844 69.6893C86.2975 62.243 89.0234 53.4169 88.9998 44.3842C88.9763 35.3514 86.2045 26.5397 81.0528 19.1201C75.9011 11.7004 68.6134 6.02426 60.1583 2.84587C51.7032 -0.332519 42.4811 -0.862594 33.7174 1.32609C24.9538 3.51477 17.0638 8.31857 11.0959 15.0991C5.12797 21.8796 1.3648 30.3157 0.306488 39.2862L18.4375 41.4252C19.0616 36.135 21.2809 31.1599 24.8004 27.1612C28.3199 23.1625 32.9729 20.3295 38.1411 19.0387C43.3094 17.748 48.748 18.0606 53.7343 19.935C58.7206 21.8094 63.0184 25.1569 66.0566 29.5325C69.0947 33.9082 70.7293 39.1047 70.7432 44.4317C70.7571 49.7586 69.1495 54.9637 66.1342 59.3551C63.1188 63.7465 58.8385 67.1162 53.862 69.0166C48.8856 70.9169 43.4486 71.2578 38.2738 69.994L33.9423 87.7295Z" fill="#19B08F"/>
<path d="M33.9423 87.7295C42.7172 89.8725 51.9365 89.2944 60.375 86.0721C68.8134 82.8497 76.0714 77.1357 81.1844 69.6893C86.2975 62.243 89.0234 53.4169 88.9998 44.3842C88.9763 35.3514 86.2045 26.5397 81.0528 19.1201C75.9011 11.7004 68.6134 6.02426 60.1583 2.84587C51.7032 -0.332519 42.4811 -0.862594 33.7174 1.32609C24.9538 3.51477 17.0638 8.31857 11.0959 15.0991C5.12797 21.8796 1.3648 30.3157 0.306488 39.2862L18.4375 41.4252C19.0616 36.135 21.2809 31.1599 24.8004 27.1612C28.3199 23.1625 32.9729 20.3295 38.1411 19.0387C43.3094 17.748 48.748 18.0606 53.7343 19.935C58.7206 21.8094 63.0184 25.1569 66.0566 29.5325C69.0947 33.9082 70.7293 39.1047 70.7432 44.4317C70.7571 49.7586 69.1495 54.9637 66.1342 59.3551C63.1188 63.7465 58.8385 67.1162 53.862 69.0166C48.8856 70.9169 43.4486 71.2578 38.2738 69.994L33.9423 87.7295Z" fill="#F17E22"/>
<path d="M0.310542 39.252C-0.971155 50.0441 1.74085 60.9322 7.93495 69.8623C14.1291 78.7924 23.377 85.147 33.9342 87.7275L38.269 69.9928C32.043 68.4711 26.5891 64.7235 22.9362 59.4571C19.2833 54.1907 17.684 47.7696 18.4398 41.405L0.310542 39.252Z" fill="#1E605E"/>
<circle cx="45.0428" cy="43.9573" r="27.6768" fill="#122144"/>
</svg>
