<svg width="20" height="20" viewBox="0 0 20 20" fill="none" xmlns="http://www.w3.org/2000/svg">
<path d="M14.1663 11.6667V16.6667M11.6663 14.1667H16.6663M4.99967 8.33334H6.66634C7.58682 8.33334 8.33301 7.58714 8.33301 6.66667V5C8.33301 4.07953 7.58682 3.33334 6.66634 3.33334H4.99967C4.0792 3.33334 3.33301 4.07953 3.33301 5V6.66667C3.33301 7.58714 4.0792 8.33334 4.99967 8.33334ZM13.333 8.33334H14.9997C15.9201 8.33334 16.6663 7.58714 16.6663 6.66667V5C16.6663 4.07953 15.9201 3.33334 14.9997 3.33334H13.333C12.4125 3.33334 11.6663 4.07953 11.6663 5V6.66667C11.6663 7.58714 12.4125 8.33334 13.333 8.33334ZM4.99967 16.6667H6.66634C7.58682 16.6667 8.33301 15.9205 8.33301 15V13.3333C8.33301 12.4129 7.58682 11.6667 6.66634 11.6667H4.99967C4.0792 11.6667 3.33301 12.4129 3.33301 13.3333V15C3.33301 15.9205 4.0792 16.6667 4.99967 16.6667Z" stroke="#0EA78B" stroke-width="1.5" stroke-linecap="round" stroke-linejoin="round"/>
</svg>
