<svg width="20" height="20" viewBox="0 0 20 20" fill="none" xmlns="http://www.w3.org/2000/svg">
<path d="M10.0007 13.3333C12.2982 13.3333 14.1673 11.8379 14.1673 9.99999C14.1673 8.16207 12.2982 6.66666 10.0007 6.66666C7.70315 6.66666 5.83398 8.16207 5.83398 9.99999C5.83398 11.8379 7.70315 13.3333 10.0007 13.3333ZM10.0007 8.33332C11.3557 8.33332 12.5007 9.09666 12.5007 9.99999C12.5007 10.9033 11.3557 11.6667 10.0007 11.6667C8.64565 11.6667 7.50065 10.9033 7.50065 9.99999C7.50065 9.09666 8.64565 8.33332 10.0007 8.33332Z" fill="#0EA78B"/>
<path d="M1.66699 14.1667C1.66699 15.0833 2.41699 15.8333 3.33366 15.8333H16.667C17.5837 15.8333 18.3337 15.0833 18.3337 14.1667V5.83332C18.3337 4.91666 17.5837 4.16666 16.667 4.16666H3.33366C2.41699 4.16666 1.66699 4.91666 1.66699 5.83332V14.1667ZM16.667 14.1667H15.1462C15.3978 13.4583 15.9587 12.8975 16.667 12.6458V14.1667ZM16.667 5.83332V7.35416C15.9587 7.10249 15.3978 6.54166 15.1462 5.83332H16.667ZM3.33366 5.83332H4.85449C4.60283 6.54166 4.04199 7.10249 3.33366 7.35416V5.83332ZM3.33366 9.08249C4.96366 8.75041 6.25074 7.46332 6.58283 5.83332H13.4174C13.7495 7.46332 15.0366 8.75041 16.6666 9.08249V10.9171C15.0366 11.2492 13.7495 12.5362 13.4174 14.1662H6.58283C6.25074 12.5362 4.96366 11.2492 3.33366 10.9171V9.08249ZM3.33366 12.6458C4.04199 12.8975 4.60283 13.4583 4.85449 14.1667H3.33366V12.6458Z" fill="#0EA78B"/>
</svg>
