<svg width="32" height="32" viewBox="0 0 32 32" fill="none" xmlns="http://www.w3.org/2000/svg">
<path d="M29.3337 8.00004C29.3337 6.53337 28.1337 5.33337 26.667 5.33337H5.33366C3.86699 5.33337 2.66699 6.53337 2.66699 8.00004V24C2.66699 25.4667 3.86699 26.6667 5.33366 26.6667H26.667C28.1337 26.6667 29.3337 25.4667 29.3337 24V8.00004ZM26.667 8.00004L16.0003 14.6667L5.33366 8.00004H26.667ZM26.667 24H5.33366V10.6667L16.0003 17.3334L26.667 10.6667V24Z" fill="#19B08F"/>
<path d="M29.3337 8.00004C29.3337 6.53337 28.1337 5.33337 26.667 5.33337H5.33366C3.86699 5.33337 2.66699 6.53337 2.66699 8.00004V24C2.66699 25.4667 3.86699 26.6667 5.33366 26.6667H26.667C28.1337 26.6667 29.3337 25.4667 29.3337 24V8.00004ZM26.667 8.00004L16.0003 14.6667L5.33366 8.00004H26.667ZM26.667 24H5.33366V10.6667L16.0003 17.3334L26.667 10.6667V24Z" fill="#F17E22"/>
</svg>
