<svg width="25" height="24" viewBox="0 0 25 24" fill="none" xmlns="http://www.w3.org/2000/svg">
<path d="M12.4841 5.25C8.83067 5.25 5.08301 7.36453 2.1327 11.5936C2.04849 11.7156 2.00234 11.8599 2.00009 12.0082C1.99783 12.1564 2.03958 12.302 2.12004 12.4266C4.38692 15.975 8.08442 18.75 12.4841 18.75C16.836 18.75 20.6094 15.9666 22.8805 12.4102C22.9591 12.2881 23.0009 12.1459 23.0009 12.0007C23.0009 11.8555 22.9591 11.7134 22.8805 11.5912C20.6043 8.07562 16.8032 5.25 12.4841 5.25Z" stroke="#122144" stroke-linecap="round" stroke-linejoin="round"/>
<path d="M12.5 15.75C14.5711 15.75 16.25 14.0711 16.25 12C16.25 9.92893 14.5711 8.25 12.5 8.25C10.4289 8.25 8.75 9.92893 8.75 12C8.75 14.0711 10.4289 15.75 12.5 15.75Z" stroke="#122144" stroke-miterlimit="10"/>
</svg>
