<svg width="20" height="20" viewBox="0 0 20 20" fill="none" xmlns="http://www.w3.org/2000/svg">
<path d="M16.6663 10.8333V4.99999C16.6663 4.07952 15.9201 3.33333 14.9997 3.33333H4.99967C4.0792 3.33333 3.33301 4.07952 3.33301 4.99999V10.8333M16.6663 10.8333V15C16.6663 15.9205 15.9201 16.6667 14.9997 16.6667H4.99967C4.0792 16.6667 3.33301 15.9205 3.33301 15V10.8333M16.6663 10.8333H14.5115C14.2905 10.8333 14.0785 10.9211 13.9223 11.0774L11.9104 13.0893C11.7541 13.2455 11.5422 13.3333 11.3212 13.3333H8.67819C8.45717 13.3333 8.24521 13.2455 8.08893 13.0893L6.07709 11.0774C5.92081 10.9211 5.70884 10.8333 5.48783 10.8333H3.33301" stroke="#0EA78B" stroke-width="1.5" stroke-linecap="round" stroke-linejoin="round"/>
</svg>
