<svg width="70" height="70" viewBox="0 0 70 70" fill="none" xmlns="http://www.w3.org/2000/svg">
<circle cx="35" cy="35" r="35" fill="#F17E22" fill-opacity="0.3"/>
<path d="M28.1432 22.5C26.5132 22.6612 25.4157 23.0237 24.5957 23.845C23.127 25.3163 23.127 27.685 23.127 32.4238V37.4487C23.127 42.1862 23.127 44.5562 24.5957 46.0287C26.0645 47.5012 28.4295 47.5 33.1582 47.5H35.667C40.3957 47.5 42.7607 47.5 44.2295 46.0287C45.5632 44.6912 45.687 42.6325 45.6982 38.7213" stroke="#19B08F" stroke-width="2" stroke-linecap="round" stroke-linejoin="round"/>
<path d="M28.1432 22.5C26.5132 22.6612 25.4157 23.0237 24.5957 23.845C23.127 25.3163 23.127 27.685 23.127 32.4238V37.4487C23.127 42.1862 23.127 44.5562 24.5957 46.0287C26.0645 47.5012 28.4295 47.5 33.1582 47.5H35.667C40.3957 47.5 42.7607 47.5 44.2295 46.0287C45.5632 44.6912 45.687 42.6325 45.6982 38.7213" stroke="#F17E22" stroke-width="2" stroke-linecap="round" stroke-linejoin="round"/>
<path d="M33.1586 28.75L34.4124 33.125C35.1124 34.5125 35.9911 34.875 38.1749 35C39.9111 34.9575 40.9186 34.7525 41.7786 34.005C42.3649 33.495 42.6299 32.7262 42.7586 31.9612L43.1886 29.375M46.3236 26.875V33.125M30.7524 26.1662C32.7361 24.52 34.5036 23.6362 38.1699 22.6637C38.5835 22.5545 39.0186 22.5567 39.4311 22.67C42.6761 23.5625 44.4286 24.355 46.7761 26.1175C46.8761 26.1925 46.9061 26.3325 46.8361 26.4362C46.0699 27.5637 44.3586 28.4775 40.1611 30.105C39.2868 30.4414 38.3179 30.436 37.4474 30.09C32.9774 28.315 30.9224 27.365 30.6724 26.3787C30.6642 26.3394 30.6674 26.2985 30.6816 26.2609C30.6958 26.2233 30.7203 26.1905 30.7524 26.1662Z" stroke="#19B08F" stroke-width="2" stroke-linecap="round" stroke-linejoin="round"/>
<path d="M33.1586 28.75L34.4124 33.125C35.1124 34.5125 35.9911 34.875 38.1749 35C39.9111 34.9575 40.9186 34.7525 41.7786 34.005C42.3649 33.495 42.6299 32.7262 42.7586 31.9612L43.1886 29.375M46.3236 26.875V33.125M30.7524 26.1662C32.7361 24.52 34.5036 23.6362 38.1699 22.6637C38.5835 22.5545 39.0186 22.5567 39.4311 22.67C42.6761 23.5625 44.4286 24.355 46.7761 26.1175C46.8761 26.1925 46.9061 26.3325 46.8361 26.4362C46.0699 27.5637 44.3586 28.4775 40.1611 30.105C39.2868 30.4414 38.3179 30.436 37.4474 30.09C32.9774 28.315 30.9224 27.365 30.6724 26.3787C30.6642 26.3394 30.6674 26.2985 30.6816 26.2609C30.6958 26.2233 30.7203 26.1905 30.7524 26.1662Z" stroke="#F17E22" stroke-width="2" stroke-linecap="round" stroke-linejoin="round"/>
</svg>
