<svg width="46" height="46" viewBox="0 0 46 46" fill="none" xmlns="http://www.w3.org/2000/svg">
<path d="M17.0526 8.83398H28.9526C33.4859 8.83398 37.1693 12.5173 37.1693 17.0507V28.9507C37.1693 31.1298 36.3036 33.2198 34.7627 34.7607C33.2217 36.3016 31.1318 37.1673 28.9526 37.1673H17.0526C12.5193 37.1673 8.83594 33.484 8.83594 28.9507V17.0507C8.83594 14.8715 9.70162 12.7815 11.2425 11.2406C12.7835 9.69967 14.8734 8.83398 17.0526 8.83398ZM16.7693 11.6673C15.4167 11.6673 14.1195 12.2046 13.163 13.1611C12.2066 14.1175 11.6693 15.4147 11.6693 16.7673V29.234C11.6693 32.0532 13.9501 34.334 16.7693 34.334H29.2359C30.5885 34.334 31.8857 33.7967 32.8422 32.8402C33.7986 31.8838 34.3359 30.5866 34.3359 29.234V16.7673C34.3359 13.9482 32.0551 11.6673 29.2359 11.6673H16.7693ZM30.4401 13.7923C30.9098 13.7923 31.3602 13.9789 31.6923 14.311C32.0244 14.6431 32.2109 15.0935 32.2109 15.5632C32.2109 16.0328 32.0244 16.4832 31.6923 16.8153C31.3602 17.1474 30.9098 17.334 30.4401 17.334C29.9705 17.334 29.52 17.1474 29.1879 16.8153C28.8558 16.4832 28.6693 16.0328 28.6693 15.5632C28.6693 15.0935 28.8558 14.6431 29.1879 14.311C29.52 13.9789 29.9705 13.7923 30.4401 13.7923ZM23.0026 15.9173C24.8812 15.9173 26.6829 16.6636 28.0113 17.992C29.3397 19.3204 30.0859 21.122 30.0859 23.0007C30.0859 24.8793 29.3397 26.6809 28.0113 28.0093C26.6829 29.3377 24.8812 30.084 23.0026 30.084C21.124 30.084 19.3223 29.3377 17.9939 28.0093C16.6655 26.6809 15.9193 24.8793 15.9193 23.0007C15.9193 21.122 16.6655 19.3204 17.9939 17.992C19.3223 16.6636 21.124 15.9173 23.0026 15.9173ZM23.0026 18.7507C21.8754 18.7507 20.7944 19.1984 19.9974 19.9954C19.2004 20.7925 18.7526 21.8735 18.7526 23.0007C18.7526 24.1278 19.2004 25.2088 19.9974 26.0059C20.7944 26.8029 21.8754 27.2507 23.0026 27.2507C24.1298 27.2507 25.2108 26.8029 26.0078 26.0059C26.8048 25.2088 27.2526 24.1278 27.2526 23.0007C27.2526 21.8735 26.8048 20.7925 26.0078 19.9954C25.2108 19.1984 24.1298 18.7507 23.0026 18.7507Z" fill="#141619"/>
</svg>
