<svg width="112" height="89" viewBox="0 0 112 89" fill="none" xmlns="http://www.w3.org/2000/svg">
<path d="M44.7318 45.4821C45.8158 46.5686 47.5727 46.5686 48.6567 45.4821L50.6182 43.5161C51.7022 42.4297 51.7022 40.6688 50.6182 39.5824L44.423 33.375L50.6165 27.1659C51.7005 26.0794 51.7005 24.3186 50.6165 23.2321L48.6549 21.2661C47.5709 20.1797 45.814 20.1797 44.73 21.2661L34.6117 31.4073C33.5277 32.4937 33.5277 34.2546 34.6117 35.341L44.7318 45.4821ZM61.3835 43.5179L63.3451 45.4839C64.4291 46.5703 66.186 46.5703 67.27 45.4839L77.3883 35.3427C78.4723 34.2563 78.4723 32.4954 77.3883 31.409L67.27 21.2679C66.186 20.1814 64.4291 20.1814 63.3451 21.2679L61.3835 23.2339C60.2995 24.3203 60.2995 26.0812 61.3835 27.1676L67.577 33.375L61.3835 39.5841C60.2995 40.6706 60.2995 42.4314 61.3835 43.5179ZM108.725 72.3125H66.6733C66.545 75.756 64.1221 77.875 60.995 77.875H50.45C47.2085 77.875 44.7231 74.8382 44.7665 72.3125H3.275C1.74875 72.3125 0.5 73.5641 0.5 75.0938V77.875C0.5 83.9938 5.495 89 11.6 89H100.4C106.505 89 111.5 83.9938 111.5 77.875V75.0938C111.5 73.5641 110.251 72.3125 108.725 72.3125ZM100.4 8.34375C100.4 3.75469 96.6538 0 92.075 0H19.925C15.3463 0 11.6 3.75469 11.6 8.34375V66.75H100.4V8.34375ZM89.3 55.625H22.7V11.125H89.3V55.625Z" fill="#1E605E"/>
</svg>
