<svg width="77" height="77" viewBox="0 0 77 77" fill="none" xmlns="http://www.w3.org/2000/svg">
<path fill-rule="evenodd" clip-rule="evenodd" d="M68.6297 52.4108C68.7725 52.5582 68.844 52.632 68.9108 52.7053C69.9408 53.8364 70.5328 55.2983 70.5801 56.8274C70.5832 56.9265 70.5832 57.0292 70.5832 57.2345C70.5832 57.7132 70.5832 57.9525 70.5704 58.1546C70.3666 61.3798 67.7963 63.9501 64.5711 64.1539C64.369 64.1667 64.1297 64.1667 63.651 64.1667H13.3487C12.87 64.1667 12.6307 64.1667 12.4285 64.1539C9.20341 63.9501 6.63305 61.3798 6.42927 58.1546C6.4165 57.9525 6.4165 57.7132 6.4165 57.2345C6.4165 57.0292 6.4165 56.9265 6.41957 56.8274C6.46686 55.2983 7.05888 53.8364 8.0889 52.7053C8.15567 52.632 8.22707 52.5583 8.36983 52.411L12.5223 48.125H64.4773L68.6297 52.4108ZM28.0728 57.75C28.0728 56.4211 29.1501 55.3438 30.479 55.3438H46.5207C47.8496 55.3438 48.9269 56.4211 48.9269 57.75C48.9269 59.0789 47.8496 60.1563 46.5207 60.1563H30.479C29.1501 60.1563 28.0728 59.0789 28.0728 57.75Z" fill="#EA580C"/>
<path fill-rule="evenodd" clip-rule="evenodd" d="M13.9655 22.4583C13.9655 16.4086 13.9655 13.3838 15.8449 11.5044C17.7243 9.625 20.7492 9.625 26.7989 9.625H50.2008C56.2505 9.625 59.2754 9.625 61.1548 11.5044C63.0342 13.3838 63.0342 16.4086 63.0342 22.4583V44.9167H13.9655V22.4583ZM38.4998 20.8542C39.8288 20.8542 40.9061 19.7769 40.9061 18.4479C40.9061 17.119 39.8288 16.0417 38.4998 16.0417C37.1709 16.0417 36.0936 17.119 36.0936 18.4479C36.0936 19.7769 37.1709 20.8542 38.4998 20.8542Z" fill="#EA580C"/>
</svg>
