<svg width="48" height="48" viewBox="0 0 48 48" fill="none" xmlns="http://www.w3.org/2000/svg">
<path d="M9 24C9 18.3431 9 15.5147 10.7574 13.7574C12.5147 12 15.3431 12 21 12H27C32.6569 12 35.4853 12 37.2426 13.7574C39 15.5147 39 18.3431 39 24C39 29.6569 39 32.4853 37.2426 34.2426C35.4853 36 32.6569 36 27 36H21C15.3431 36 12.5147 36 10.7574 34.2426C9 32.4853 9 29.6569 9 24Z" stroke="#141619" stroke-width="2.25"/>
<path d="M15 18L18.2383 20.6986C20.9933 22.9944 22.3708 24.1423 24 24.1423C25.6292 24.1423 27.0067 22.9944 29.7617 20.6986L33 18" stroke="#141619" stroke-width="2.25" stroke-linecap="round"/>
</svg>
