<svg width="57" height="57" viewBox="0 0 57 57" fill="none" xmlns="http://www.w3.org/2000/svg">
<path fill-rule="evenodd" clip-rule="evenodd" d="M31.9096 13.7367C29.7834 12.5773 27.2138 12.5773 25.0876 13.7367L13.7013 19.9454C11.4119 21.1938 9.9873 23.5931 9.9873 26.2009V37.9277C9.9873 40.5355 11.4119 42.9348 13.7013 44.1832L25.0876 50.3919C27.2138 51.5513 29.7834 51.5513 31.9096 50.3919L43.2958 44.1832C45.5853 42.9348 47.0099 40.5355 47.0099 37.9277V26.2009C47.0099 23.5931 45.5853 21.1938 43.2958 19.9454L31.9096 13.7367ZM28.4991 24.9393C27.8244 24.9393 27.3732 25.7488 26.4707 27.3678L26.2372 27.7866C25.9808 28.2467 25.8525 28.4767 25.6526 28.6285C25.4527 28.7803 25.2037 28.8366 24.7057 28.9493L24.2523 29.0519C22.4997 29.4484 21.6235 29.6467 21.415 30.3171C21.2065 30.9875 21.8039 31.686 22.9987 33.0832L23.3078 33.4446C23.6473 33.8416 23.817 34.0401 23.8934 34.2857C23.9698 34.5313 23.9441 34.7961 23.8928 35.3258L23.846 35.8081C23.6654 37.6721 23.5751 38.6042 24.1209 39.0185C24.6667 39.4328 25.4871 39.0551 27.128 38.2995L27.5525 38.1041C28.0188 37.8894 28.252 37.782 28.4991 37.782C28.7462 37.782 28.9794 37.8894 29.4457 38.1041L29.8702 38.2995C31.5111 39.0551 32.3315 39.4328 32.8773 39.0185C33.4231 38.6042 33.3328 37.6721 33.1521 35.8081L33.1054 35.3258C33.0541 34.7962 33.0284 34.5313 33.1048 34.2857C33.1811 34.0401 33.3509 33.8416 33.6904 33.4446L33.9995 33.0832C35.1943 31.6861 35.7916 30.9875 35.5832 30.3171C35.3747 29.6467 34.4984 29.4484 32.7459 29.0519L32.2925 28.9493C31.7945 28.8366 31.5455 28.7803 31.3456 28.6285C31.1456 28.4767 31.0174 28.2467 30.7609 27.7866L30.5275 27.3678C29.625 25.7488 29.1737 24.9393 28.4991 24.9393Z" fill="#EA580C"/>
<path d="M26.125 4.75H30.875C35.3533 4.75 37.5925 4.75 38.9838 6.14124C40.375 7.53249 40.375 9.77166 40.375 14.25V14.2927L33.6159 10.6071C30.4267 8.8681 26.5724 8.86809 23.3831 10.6071L16.625 14.2922V14.25C16.625 9.77166 16.625 7.53249 18.0162 6.14124C19.4075 4.75 21.6467 4.75 26.125 4.75Z" fill="#EA580C"/>
</svg>
