<svg width="38" height="38" viewBox="0 0 38 38" fill="none" xmlns="http://www.w3.org/2000/svg">
<path d="M34.8337 15.8333V26.9167C34.8337 28.1764 34.3332 29.3846 33.4424 30.2754C32.5516 31.1662 31.3434 31.6667 30.0837 31.6667H7.91699C6.65721 31.6667 5.44903 31.1662 4.55824 30.2754C3.66744 29.3846 3.16699 28.1764 3.16699 26.9167V15.8333H34.8337ZM28.5003 22.1667H23.7503C23.3304 22.1667 22.9277 22.3335 22.6307 22.6304C22.3338 22.9273 22.167 23.3301 22.167 23.75C22.167 24.1699 22.3338 24.5726 22.6307 24.8696C22.9277 25.1665 23.3304 25.3333 23.7503 25.3333H28.5003C28.9202 25.3333 29.323 25.1665 29.6199 24.8696C29.9168 24.5726 30.0837 24.1699 30.0837 23.75C30.0837 23.3301 29.9168 22.9273 29.6199 22.6304C29.323 22.3335 28.9202 22.1667 28.5003 22.1667ZM30.0837 6.33333C31.3434 6.33333 32.5516 6.83377 33.4424 7.72457C34.3332 8.61537 34.8337 9.82355 34.8337 11.0833V12.6667H3.16699V11.0833C3.16699 9.82355 3.66744 8.61537 4.55824 7.72457C5.44903 6.83377 6.65721 6.33333 7.91699 6.33333H30.0837Z" fill="black"/>
</svg>
