<svg width="57" height="57" viewBox="0 0 57 57" fill="none" xmlns="http://www.w3.org/2000/svg">
<path d="M4.15625 23.7508V33.2508C4.15625 39.9683 4.15625 43.3271 6.24311 45.414C6.75929 45.9301 7.35328 46.3186 8.05667 46.6111C8.04071 46.5054 8.02564 46.3995 8.01138 46.2935C7.71841 44.1144 7.71856 41.3933 7.71874 38.2352L7.71875 19.0007L7.71874 18.7662C7.71856 15.6081 7.71841 12.887 8.01138 10.708C8.02563 10.602 8.04069 10.4962 8.05663 10.3906C7.35326 10.683 6.75928 11.0715 6.24311 11.5877C4.15625 13.6746 4.15625 17.0333 4.15625 23.7508Z" fill="#EA580C"/>
<path d="M51.6562 23.7508V33.2508C51.6562 39.9683 51.6562 43.3271 49.5694 45.414C49.0532 45.9301 48.4592 46.3186 47.7558 46.6111C47.7718 46.5054 47.7869 46.3995 47.8011 46.2935C48.0941 44.1144 48.0939 41.3933 48.0938 38.2352V18.7662C48.0939 15.6081 48.0941 12.887 47.8011 10.708C47.7869 10.602 47.7718 10.4962 47.7559 10.3906C48.4592 10.683 49.0532 11.0715 49.5694 11.5877C51.6562 13.6746 51.6562 17.0333 51.6562 23.7508Z" fill="#EA580C"/>
<path fill-rule="evenodd" clip-rule="evenodd" d="M13.3681 6.83686C11.2812 8.92373 11.2812 12.2825 11.2812 19V38C11.2812 44.7175 11.2812 48.0763 13.3681 50.1631C15.455 52.25 18.8137 52.25 25.5312 52.25H30.2812C36.9988 52.25 40.3575 52.25 42.4444 50.1631C44.5312 48.0763 44.5312 44.7175 44.5312 38V19C44.5312 12.2825 44.5312 8.92373 42.4444 6.83686C40.3575 4.75 36.9988 4.75 30.2812 4.75H25.5312C18.8137 4.75 15.455 4.75 13.3681 6.83686ZM19 40.375C19 39.3912 19.7975 38.5938 20.7812 38.5938H27.9062C28.89 38.5938 29.6875 39.3912 29.6875 40.375C29.6875 41.3588 28.89 42.1562 27.9062 42.1562H20.7812C19.7975 42.1562 19 41.3588 19 40.375ZM20.7812 29.0938C19.7975 29.0938 19 29.8912 19 30.875C19 31.8588 19.7975 32.6562 20.7812 32.6562H35.0312C36.015 32.6562 36.8125 31.8588 36.8125 30.875C36.8125 29.8912 36.015 29.0938 35.0312 29.0938H20.7812ZM19 21.375C19 20.3912 19.7975 19.5938 20.7812 19.5938H35.0312C36.015 19.5938 36.8125 20.3912 36.8125 21.375C36.8125 22.3588 36.015 23.1562 35.0312 23.1562H20.7812C19.7975 23.1562 19 22.3588 19 21.375Z" fill="#EA580C"/>
</svg>
