<svg width="20" height="20" viewBox="0 0 20 20" fill="none" xmlns="http://www.w3.org/2000/svg">
<path d="M12.4997 14.1667H16.6663L15.4956 12.9959C15.1781 12.6784 14.9997 12.2477 14.9997 11.7987V9.16667C14.9997 6.98964 13.6083 5.13757 11.6663 4.45118V4.16667C11.6663 3.24619 10.9201 2.5 9.99967 2.5C9.0792 2.5 8.33301 3.24619 8.33301 4.16667V4.45118C6.39102 5.13757 4.99967 6.98964 4.99967 9.16667V11.7987C4.99967 12.2477 4.8213 12.6784 4.50378 12.9959L3.33301 14.1667H7.49967M12.4997 14.1667V15C12.4997 16.3807 11.3804 17.5 9.99967 17.5C8.61896 17.5 7.49967 16.3807 7.49967 15V14.1667M12.4997 14.1667H7.49967" stroke="#0EA78B" stroke-width="1.5" stroke-linecap="round" stroke-linejoin="round"/>
</svg>
