<svg width="19" height="20" viewBox="0 0 19 20" fill="none" xmlns="http://www.w3.org/2000/svg">
<path d="M4.66503 12.9722L3.71995 18.7893L8.71204 16.3406C8.87485 16.2607 8.95626 16.2208 9.04317 16.2052C9.12004 16.1914 9.19966 16.1914 9.27653 16.2052C9.36343 16.2208 9.44484 16.2607 9.60766 16.3406L14.5997 18.7893L13.6553 12.9696M13.9751 3.0003C14.1431 3.33254 14.4657 3.59662 14.8718 3.73449L16.2958 4.21674C16.7022 4.35437 17.0251 4.61834 17.1934 4.9506C17.3618 5.28286 17.3618 5.65618 17.1934 5.98844L16.604 7.15186C16.4356 7.48427 16.4354 7.85797 16.6045 8.19021L17.193 9.35329C17.2764 9.51785 17.3194 9.69424 17.3194 9.87239C17.3194 10.0505 17.2765 10.2269 17.1932 10.3915C17.1098 10.5561 16.9875 10.7057 16.8334 10.8316C16.6793 10.9575 16.4964 11.0574 16.295 11.1256L14.872 11.6075C14.4657 11.7448 14.1427 12.0085 13.974 12.3405L13.3842 13.5048C13.2158 13.8371 12.8929 14.101 12.4865 14.2387C12.0801 14.3763 11.6235 14.3763 11.2171 14.2387L9.7941 13.7568C9.38769 13.6195 8.93123 13.6197 8.52507 13.7575L7.10103 14.2391C6.69486 14.3764 6.23863 14.3763 5.83256 14.2388C5.42649 14.1013 5.10379 13.8376 4.93534 13.5057L4.34531 12.3411C4.17728 12.0089 3.85476 11.7448 3.44865 11.6069L2.0246 11.1247C1.61838 10.9871 1.2956 10.7233 1.1272 10.3912C0.9588 10.0591 0.958571 9.68599 1.12656 9.35378L1.716 8.19037C1.88392 7.8581 1.88358 7.48491 1.71504 7.15285L1.12645 5.98776C1.043 5.8232 1.00003 5.6468 1 5.46866C0.999965 5.29051 1.04287 5.1141 1.12625 4.94952C1.20964 4.78493 1.33187 4.63539 1.48597 4.50945C1.64008 4.3835 1.82302 4.28361 2.02436 4.21549L3.44738 3.73359C3.85339 3.59633 4.17621 3.33298 4.34497 3.00134L4.93483 1.83708C5.10316 1.50482 5.42604 1.24085 5.83244 1.10322C6.23884 0.965593 6.69547 0.965593 7.10186 1.10322L8.52488 1.58512C8.93129 1.72241 9.38775 1.72213 9.79391 1.58434L11.2186 1.10397C11.6249 0.966418 12.0814 0.966446 12.4877 1.10405C12.8941 1.24164 13.2169 1.50555 13.3853 1.83772L13.9753 3.00232L13.9751 3.0003Z" stroke="#0F172A" stroke-width="2" stroke-linecap="round" stroke-linejoin="round"/>
</svg>
