<svg width="18" height="19" viewBox="0 0 18 19" fill="none" xmlns="http://www.w3.org/2000/svg">
<path d="M1.53271 2.886C1.53271 2.02218 1.53271 1.59027 1.75302 1.35219C1.94494 1.14477 2.23829 1.01642 2.55585 1.00092C2.92036 0.98313 3.35994 1.22271 4.23909 1.70187L15.6798 7.93736C16.4062 8.33328 16.7694 8.53124 16.896 8.78076C17.0067 8.99891 17.0067 9.24407 16.896 9.46222C16.7694 9.71173 16.4062 9.90969 15.6798 10.3056L4.23908 16.5411C3.35994 17.0203 2.92036 17.2598 2.55585 17.2421C2.23829 17.2266 1.94494 17.0982 1.75302 16.8908C1.53271 16.6527 1.53271 16.2208 1.53271 15.357V2.886Z" stroke="#0F172A" stroke-width="2" stroke-linecap="round" stroke-linejoin="round"/>
</svg>
