<svg width="24" height="24" viewBox="0 0 24 24" fill="none" xmlns="http://www.w3.org/2000/svg">
<g clip-path="url(#clip0_55_1169)">
<path d="M12 15C12.5523 15 13 14.5523 13 14C13 13.4477 12.5523 13 12 13C11.4477 13 11 13.4477 11 14C11 14.5523 11.4477 15 12 15Z" fill="black"/>
<path d="M6 22H18C19.1 22 20 21.1 20 20V11C20 9.9 19.1 9 18 9H9V7C9 5.3455 10.3455 4 12 4C13.6545 4 15 5.3455 15 7H17C17 4.243 14.757 2 12 2C9.243 2 7 4.243 7 7V9H6C4.9 9 4 9.9 4 11V20C4 21.1 4.9 22 6 22ZM6 11H18V20H6V11Z" fill="black"/>
</g>
<defs>
<clipPath id="clip0_55_1169">
<rect width="24" height="24" fill="white"/>
</clipPath>
</defs>
</svg>
