<svg width="24" height="24" viewBox="0 0 24 24" fill="none" xmlns="http://www.w3.org/2000/svg">
<g clip-path="url(#clip0_55_1140)">
<path d="M15.09 8.5835L12 2L8.91 8.5835L2 9.6395L7 14.764L5.8195 22L12 18.5835L18.1805 22L17 14.764L22 9.6395L15.09 8.5835ZM15.5685 13.367L14.8635 14.0895L15.026 15.0855L15.5435 18.2565L12.9675 16.8325L12 16.2985L11.0325 16.8335L8.4565 18.2575L8.974 15.0865L9.1365 14.0905L8.4315 13.368L6.1495 11.0295L9.212 10.5615L10.267 10.4005L10.7205 9.4345L12 6.707L13.2795 9.4335L13.733 10.3995L14.788 10.5605L17.8505 11.0285L15.5685 13.367Z" fill="black"/>
</g>
<defs>
<clipPath id="clip0_55_1140">
<rect width="24" height="24" fill="white"/>
</clipPath>
</defs>
</svg>
