<svg width="70" height="71" viewBox="0 0 70 71" fill="none" xmlns="http://www.w3.org/2000/svg">
<rect x="0.622681" y="0.622681" width="68.6063" height="69.7546" rx="34.3031" stroke="#EA580C" stroke-width="1.24536"/>
<path fill-rule="evenodd" clip-rule="evenodd" d="M22.737 23.3658C22.2485 23.1941 21.7133 23.4509 21.5416 23.9393C21.3699 24.4278 21.6266 24.963 22.1151 25.1347L22.4416 25.2495C23.2761 25.5429 23.8246 25.7373 24.2281 25.9353C24.6071 26.1213 24.7742 26.2718 24.8843 26.4329C24.9971 26.598 25.0843 26.8248 25.1334 27.279C25.1849 27.7542 25.1861 28.3733 25.1861 29.2982V32.7003C25.1861 34.5159 25.2032 35.8251 25.3745 36.8254C25.5574 37.8933 25.9226 38.6578 26.6054 39.378C27.3477 40.161 28.2887 40.5018 29.409 40.6607C30.4818 40.8128 31.8441 40.8128 33.5262 40.8128L40.2834 40.8128C41.2105 40.8128 41.9905 40.8128 42.6218 40.7356C43.2914 40.6536 43.9022 40.4744 44.4353 40.04C44.9684 39.6056 45.2672 39.0436 45.4826 38.4042C45.6857 37.8016 45.8431 37.0376 46.0303 36.1296L46.6664 33.0429L46.6676 33.0372L46.6807 32.9718C46.8865 31.9407 47.0597 31.0734 47.1027 30.3757C47.148 29.643 47.0646 28.9205 46.5872 28.3C46.2935 27.9182 45.8806 27.7021 45.505 27.5701C45.1219 27.4355 44.6887 27.3576 44.2515 27.3087C43.3927 27.2127 42.3494 27.2127 41.3261 27.2128L27.0109 27.2128C27.0068 27.1668 27.0023 27.1216 26.9975 27.0772C26.9304 26.4567 26.7848 25.8908 26.4324 25.375C26.0771 24.8552 25.6048 24.5223 25.054 24.252C24.5389 23.9993 23.8844 23.7692 23.1137 23.4983L22.737 23.3658ZM27.0611 29.0878H41.2871C42.3575 29.0878 43.2997 29.089 44.0432 29.1721C44.4126 29.2134 44.6891 29.2708 44.8834 29.3391C45.0422 29.3949 45.0959 29.4404 45.1037 29.447C45.1035 29.4469 45.104 29.4473 45.1037 29.447C45.1804 29.5488 45.2638 29.7334 45.2313 30.2602C45.1971 30.8147 45.0515 31.555 44.8294 32.6674L44.8289 32.6702L44.2054 35.6953C44.0037 36.6739 43.8679 37.3243 43.7058 37.8054C43.5519 38.2622 43.4073 38.4589 43.2508 38.5865C43.0943 38.7141 42.8724 38.8159 42.394 38.8744C41.8901 38.9361 41.2256 38.9378 40.2265 38.9378H33.5979C31.8269 38.9378 30.5981 38.9355 29.6722 38.8043C28.7787 38.6775 28.3067 38.4473 27.966 38.0879C27.5658 37.6658 27.3499 37.2525 27.2226 36.5088C27.0836 35.6976 27.0611 34.5616 27.0611 32.7003L27.0611 29.0878Z" fill="#EA580C"/>
<path fill-rule="evenodd" clip-rule="evenodd" d="M29.301 47.6878C27.7477 47.6878 26.4885 46.4286 26.4885 44.8753C26.4885 43.322 27.7477 42.0628 29.301 42.0628C30.8543 42.0628 32.1135 43.322 32.1135 44.8753C32.1135 46.4286 30.8543 47.6878 29.301 47.6878ZM28.3635 44.8753C28.3635 45.393 28.7833 45.8128 29.301 45.8128C29.8188 45.8128 30.2385 45.393 30.2385 44.8753C30.2385 44.3575 29.8188 43.9378 29.301 43.9378C28.7833 43.9378 28.3635 44.3575 28.3635 44.8753Z" fill="#EA580C"/>
<path fill-rule="evenodd" clip-rule="evenodd" d="M40.551 47.6878C38.9977 47.6878 37.7385 46.4286 37.7385 44.8753C37.7385 43.322 38.9977 42.0628 40.551 42.0628C42.1043 42.0628 43.3635 43.322 43.3635 44.8753C43.3635 46.4286 42.1043 47.6878 40.551 47.6878ZM39.6135 44.8753C39.6135 45.3931 40.0333 45.8128 40.551 45.8128C41.0688 45.8128 41.4885 45.3931 41.4885 44.8753C41.4885 44.3576 41.0688 43.9378 40.551 43.9378C40.0333 43.9378 39.6135 44.3576 39.6135 44.8753Z" fill="#EA580C"/>
</svg>
