<svg width="32" height="32" viewBox="0 0 32 32" fill="none" xmlns="http://www.w3.org/2000/svg">
<path d="M2.66699 15.9993C2.66699 9.71396 2.66699 6.57126 4.61961 4.61864C6.57223 2.66602 9.71493 2.66602 16.0003 2.66602C22.2857 2.66602 25.4284 2.66602 27.381 4.61864C29.3337 6.57126 29.3337 9.71396 29.3337 15.9993C29.3337 22.2847 29.3337 25.4274 27.381 27.3801C25.4284 29.3327 22.2857 29.3327 16.0003 29.3327C9.71493 29.3327 6.57223 29.3327 4.61961 27.3801C2.66699 25.4274 2.66699 22.2847 2.66699 15.9993Z" stroke="#1C274C" stroke-width="2"/>
<path d="M28.6663 10.666H3.33301" stroke="#1C274C" stroke-width="2" stroke-linecap="round"/>
<path d="M13.9997 3.33398L9.33301 10.6673" stroke="#1C274C" stroke-width="2" stroke-linecap="round"/>
<path d="M22.6667 3.33398L18 10.6673" stroke="#1C274C" stroke-width="2" stroke-linecap="round"/>
<path d="M19.9997 19.334C19.9997 18.4895 19.117 17.92 17.3516 16.7809C15.5621 15.6263 14.6674 15.049 14.0002 15.4729C13.333 15.8968 13.333 17.0425 13.333 19.334C13.333 21.6255 13.333 22.7712 14.0002 23.1951C14.6674 23.6189 15.5621 23.0416 17.3516 21.887C19.117 20.748 19.9997 20.1785 19.9997 19.334Z" stroke="#1C274C" stroke-width="2" stroke-linecap="round"/>
</svg>
