<svg width="35" height="35" viewBox="0 0 35 35" fill="none" xmlns="http://www.w3.org/2000/svg">
<path d="M14.211 6.39443L17.0531 2.8418C9.20489 2.8418 2.84262 9.20407 2.84262 17.0523C2.84262 24.9006 9.20489 31.2629 17.0531 31.2629C24.9014 31.2629 31.2637 24.9006 31.2637 17.0523C31.2637 11.2251 27.7562 6.21708 22.7374 4.02424" stroke="white" stroke-width="2.13158" stroke-linecap="round" stroke-linejoin="round"/>
<path d="M23.4479 12.0781H19.6968C19.391 12.0781 19.1195 12.2738 19.0228 12.564L18.0754 15.4061C17.922 15.8662 18.2645 16.3413 18.7495 16.3413H20.6058C22.1754 16.3413 23.4479 17.6137 23.4479 19.1834C23.4479 20.753 22.1754 22.0255 20.6058 22.0255H17.7637" stroke="white" stroke-width="2.13158" stroke-linecap="round"/>
<path d="M10.6582 14.9202L14.2108 12.0781V22.0255" stroke="white" stroke-width="2.13158" stroke-linecap="round" stroke-linejoin="round"/>
</svg>
