<svg width="35" height="35" viewBox="0 0 35 35" fill="none" xmlns="http://www.w3.org/2000/svg">
<path d="M19.8944 6.39443L17.0523 2.8418C24.9006 2.8418 31.2629 9.20407 31.2629 17.0523C31.2629 24.9006 24.9006 31.2629 17.0523 31.2629C9.20407 31.2629 2.8418 24.9006 2.8418 17.0523C2.8418 11.2251 6.34923 6.21708 11.3681 4.02424" stroke="white" stroke-width="2.13158" stroke-linecap="round" stroke-linejoin="round"/>
<path d="M23.4469 12.0781H19.6959C19.39 12.0781 19.1185 12.2738 19.0218 12.564L18.0744 15.4061C17.9211 15.8662 18.2635 16.3413 18.7485 16.3413H20.6048C22.1745 16.3413 23.4469 17.6137 23.4469 19.1834C23.4469 20.753 22.1745 22.0255 20.6048 22.0255H17.7627" stroke="white" stroke-width="2.13158" stroke-linecap="round"/>
<path d="M10.6582 14.9202L14.2108 12.0781V22.0255" stroke="white" stroke-width="2.13158" stroke-linecap="round" stroke-linejoin="round"/>
</svg>
