<svg width="57" height="57" viewBox="0 0 57 57" fill="none" xmlns="http://www.w3.org/2000/svg">
<path d="M26.7188 4.92578C25.2789 5.19439 23.5875 5.77333 20.9896 6.66262L19.6292 7.1283C12.4885 9.57256 8.9182 10.7947 8.0216 12.0721C7.14458 13.3217 7.12543 16.982 7.12501 24.2488L26.7188 17.7176V4.92578Z" fill="#EA580C"/>
<path d="M26.7188 21.4728L7.125 28.004V28.4809C7.125 41.8713 17.1925 48.3694 23.5091 51.1287C24.722 51.6585 25.5057 52.0009 26.7188 52.1556V21.4728Z" fill="#EA580C"/>
<path d="M30.2812 52.1556V21.4728L49.875 28.004V28.4809C49.875 41.8713 39.8075 48.3695 33.4909 51.1287C32.278 51.6586 31.4943 52.0009 30.2812 52.1556Z" fill="#EA580C"/>
<path d="M30.2812 17.7176V4.92578C31.7211 5.19439 33.4125 5.77333 36.0104 6.66262L37.3708 7.1283C44.5115 9.57256 48.0818 10.7947 48.9784 12.0721C49.8554 13.3217 49.8746 16.982 49.875 24.2488L30.2812 17.7176Z" fill="#EA580C"/>
</svg>
