<svg width="28" height="28" viewBox="0 0 28 28" fill="none" xmlns="http://www.w3.org/2000/svg">
<path d="M22.8741 18.7965L25.2342 11.7161C27.2959 5.53082 28.3268 2.43818 26.6943 0.805686C25.0618 -0.826808 21.9692 0.204071 15.7839 2.26583L8.70357 4.62594C3.71145 6.28998 1.21539 7.122 0.506081 8.3421C-0.168693 9.5028 -0.168694 10.9363 0.50608 12.097C1.21539 13.3171 3.71145 14.1491 8.70357 15.8132C9.32224 16.0194 10.0183 15.8722 10.4815 15.4132L18.0518 7.91306C18.4777 7.49112 19.165 7.49431 19.5869 7.92021C20.0089 8.3461 20.0057 9.03341 19.5798 9.45536L12.1318 16.8344C11.6212 17.3403 11.4595 18.1145 11.6868 18.7964C13.3509 23.7885 14.1829 26.2846 15.403 26.9939C16.5637 27.6687 17.9972 27.6687 19.1579 26.9939C20.378 26.2846 21.21 23.7885 22.8741 18.7965Z" fill="white"/>
</svg>
