<svg width="100" height="21" viewBox="0 0 100 21" fill="none" xmlns="http://www.w3.org/2000/svg">
<path d="M9.65416 1.56438C9.76302 1.22936 10.237 1.22936 10.3458 1.56438L12.1635 7.15856C12.2122 7.30839 12.3518 7.40983 12.5093 7.40983H18.3914C18.7437 7.40983 18.8901 7.8606 18.6051 8.06765L13.8465 11.525C13.719 11.6176 13.6657 11.7818 13.7144 11.9316L15.532 17.5258C15.6409 17.8608 15.2574 18.1394 14.9724 17.9323L10.2137 14.475C10.0863 14.3824 9.91371 14.3824 9.78626 14.475L5.02757 17.9323C4.74258 18.1394 4.35913 17.8608 4.46799 17.5258L6.28565 11.9316C6.33433 11.7818 6.281 11.6176 6.15355 11.525L1.39485 8.06765C1.10987 7.8606 1.25633 7.40983 1.60859 7.40983H7.49066C7.6482 7.40983 7.78782 7.30839 7.8365 7.15856L9.65416 1.56438Z" fill="#EAB308"/>
<path d="M29.6542 1.56438C29.763 1.22936 30.237 1.22936 30.3458 1.56438L32.1635 7.15856C32.2122 7.30839 32.3518 7.40983 32.5093 7.40983H38.3914C38.7437 7.40983 38.8901 7.8606 38.6051 8.06765L33.8465 11.525C33.719 11.6176 33.6657 11.7818 33.7144 11.9316L35.532 17.5258C35.6409 17.8608 35.2574 18.1394 34.9724 17.9323L30.2137 14.475C30.0863 14.3824 29.9137 14.3824 29.7863 14.475L25.0276 17.9323C24.7426 18.1394 24.3591 17.8608 24.468 17.5258L26.2856 11.9316C26.3343 11.7818 26.281 11.6176 26.1535 11.525L21.3949 8.06765C21.1099 7.8606 21.2563 7.40983 21.6086 7.40983H27.4907C27.6482 7.40983 27.7878 7.30839 27.8365 7.15856L29.6542 1.56438Z" fill="#EAB308"/>
<path d="M49.6542 1.56438C49.763 1.22936 50.237 1.22936 50.3458 1.56438L52.1635 7.15856C52.2122 7.30839 52.3518 7.40983 52.5093 7.40983H58.3914C58.7437 7.40983 58.8901 7.8606 58.6051 8.06765L53.8465 11.525C53.719 11.6176 53.6657 11.7818 53.7144 11.9316L55.532 17.5258C55.6409 17.8608 55.2574 18.1394 54.9724 17.9323L50.2137 14.475C50.0863 14.3824 49.9137 14.3824 49.7863 14.475L45.0276 17.9323C44.7426 18.1394 44.3591 17.8608 44.468 17.5258L46.2856 11.9316C46.3343 11.7818 46.281 11.6176 46.1535 11.525L41.3949 8.06765C41.1099 7.8606 41.2563 7.40983 41.6086 7.40983H47.4907C47.6482 7.40983 47.7878 7.30839 47.8365 7.15856L49.6542 1.56438Z" fill="#EAB308"/>
<path d="M69.6542 1.56438C69.763 1.22936 70.237 1.22936 70.3458 1.56438L72.1635 7.15856C72.2122 7.30839 72.3518 7.40983 72.5093 7.40983H78.3914C78.7437 7.40983 78.8901 7.8606 78.6051 8.06765L73.8465 11.525C73.719 11.6176 73.6657 11.7818 73.7144 11.9316L75.532 17.5258C75.6409 17.8608 75.2574 18.1394 74.9724 17.9323L70.2137 14.475C70.0863 14.3824 69.9137 14.3824 69.7863 14.475L65.0276 17.9323C64.7426 18.1394 64.3591 17.8608 64.468 17.5258L66.2856 11.9316C66.3343 11.7818 66.281 11.6176 66.1535 11.525L61.3949 8.06765C61.1099 7.8606 61.2563 7.40983 61.6086 7.40983H67.4907C67.6482 7.40983 67.7878 7.30839 67.8365 7.15856L69.6542 1.56438Z" fill="#EAB308"/>
<path d="M89.6542 1.56438C89.763 1.22936 90.237 1.22936 90.3458 1.56438L92.1635 7.15856C92.2122 7.30839 92.3518 7.40983 92.5093 7.40983H98.3914C98.7437 7.40983 98.8901 7.8606 98.6051 8.06765L93.8465 11.525C93.719 11.6176 93.6657 11.7818 93.7144 11.9316L95.532 17.5258C95.6409 17.8608 95.2574 18.1394 94.9724 17.9323L90.2137 14.475C90.0863 14.3824 89.9137 14.3824 89.7863 14.475L85.0276 17.9323C84.7426 18.1394 84.3591 17.8608 84.468 17.5258L86.2856 11.9316C86.3343 11.7818 86.281 11.6176 86.1535 11.525L81.3949 8.06765C81.1099 7.8606 81.2563 7.40983 81.6086 7.40983H87.4907C87.6482 7.40983 87.7878 7.30839 87.8365 7.15856L89.6542 1.56438Z" fill="#EAB308"/>
</svg>
