<svg width="24" height="25" viewBox="0 0 24 25" fill="none" xmlns="http://www.w3.org/2000/svg">
<path d="M11.6542 1.56438C11.763 1.22936 12.237 1.22936 12.3458 1.56438L14.6125 8.54053C14.6612 8.69036 14.8008 8.7918 14.9584 8.7918H22.2935C22.6458 8.7918 22.7922 9.24257 22.5073 9.44962L16.573 13.7611C16.4455 13.8537 16.3922 14.0178 16.4409 14.1677L18.7076 21.1438C18.8164 21.4788 18.433 21.7574 18.148 21.5504L12.2137 17.2389C12.0863 17.1463 11.9137 17.1463 11.7863 17.2389L5.85199 21.5504C5.56701 21.7574 5.18356 21.4788 5.29242 21.1438L7.5591 14.1677C7.60778 14.0178 7.55445 13.8537 7.427 13.7611L1.49274 9.44962C1.20775 9.24257 1.35422 8.7918 1.70648 8.7918H9.04163C9.19917 8.7918 9.33879 8.69036 9.38747 8.54053L11.6542 1.56438Z" fill="#EAB308"/>
</svg>
