<svg width="24" height="18" viewBox="0 0 24 18" fill="none" xmlns="http://www.w3.org/2000/svg">
<path d="M17.3197 10.7316V8.05828C17.3197 7.89864 17.3197 7.81882 17.29 7.74835C17.2637 7.68603 17.2208 7.62927 17.1643 7.58218C17.1005 7.52892 17.0132 7.49322 16.8386 7.42183L11.8798 5.39484M3.17596 6.2843V12.3386C3.17596 12.6694 3.17596 12.8348 3.23908 12.9796C3.29488 13.1076 3.38583 13.2235 3.50494 13.3183C3.63967 13.4255 3.8236 13.4945 4.19143 13.6323L11.1545 16.2414C11.4213 16.3414 11.5547 16.3914 11.6937 16.4111C11.8168 16.4286 11.9428 16.4286 12.0659 16.4111C12.2049 16.3914 12.3383 16.3414 12.6051 16.2414L19.5682 13.6323C19.936 13.4945 20.1199 13.4255 20.2546 13.3183C20.3738 13.2235 20.4647 13.1076 20.5205 12.9796C20.5836 12.8348 20.5836 12.6694 20.5836 12.3386V6.2843M1 5.39484L11.4905 1.10662C11.6333 1.04828 11.7046 1.01911 11.7795 1.00763C11.8458 0.997458 11.9138 0.997458 11.9801 1.00763C12.055 1.01911 12.1263 1.04828 12.269 1.10662L22.7596 5.39484L12.269 9.68306C12.1263 9.7414 12.055 9.77057 11.9801 9.78205C11.9138 9.79222 11.8458 9.79222 11.7795 9.78205C11.7046 9.77057 11.6333 9.7414 11.4905 9.68306L1 5.39484Z" stroke="#0F172A" stroke-width="2" stroke-linecap="round" stroke-linejoin="round"/>
</svg>
