<svg width="20" height="20" viewBox="0 0 20 20" fill="none" xmlns="http://www.w3.org/2000/svg">
<g clip-path="url(#clip0_47_431)">
<path d="M13.0322 10.6354C14.2263 9.72167 14.9997 8.28625 14.9997 6.66667C14.9997 3.90542 12.7609 1.66667 9.99967 1.66667C7.23842 1.66667 4.99967 3.90542 4.99967 6.66667C4.99967 8.28625 5.77301 9.72167 6.96717 10.6354C4.09967 11.8879 2.08301 14.8604 2.08301 18.3333H17.9163C17.9163 14.8604 15.8997 11.8879 13.0322 10.6354ZM6.66634 6.66667C6.66634 4.82876 8.16176 3.33334 9.99967 3.33334C11.8376 3.33334 13.333 4.82876 13.333 6.66667C13.333 8.50459 11.8376 10 9.99967 10C8.16176 10 6.66634 8.50459 6.66634 6.66667ZM9.99967 11.6667C12.9068 11.6667 15.3563 13.7946 16.0518 16.6667H3.94759C4.64301 13.7946 7.09259 11.6667 9.99967 11.6667Z" fill="#0EA78B"/>
</g>
<defs>
<clipPath id="clip0_47_431">
<rect width="20" height="20" fill="white"/>
</clipPath>
</defs>
</svg>
