<svg width="20" height="20" viewBox="0 0 20 20" fill="none" xmlns="http://www.w3.org/2000/svg">
<path d="M3.33301 6.66602C3.33301 4.30899 3.33301 3.13048 4.06524 2.39825C4.79747 1.66602 5.97599 1.66602 8.33301 1.66602H11.6663C14.0234 1.66602 15.2019 1.66602 15.9341 2.39825C16.6663 3.13048 16.6663 4.30899 16.6663 6.66602V13.3327C16.6663 15.6897 16.6663 16.8682 15.9341 17.6004C15.2019 18.3327 14.0234 18.3327 11.6663 18.3327H8.33301C5.97599 18.3327 4.79747 18.3327 4.06524 17.6004C3.33301 16.8682 3.33301 15.6897 3.33301 13.3327V6.66602Z" stroke="#7B818C" stroke-width="1.25"/>
<path d="M16.5812 13.334H6.58116C5.80618 13.334 5.41869 13.334 5.10077 13.4192C4.23804 13.6503 3.56418 14.3242 3.33301 15.1869" stroke="#7B818C" stroke-width="1.25"/>
<path d="M6.66699 5.83398H13.3337" stroke="#7B818C" stroke-width="1.25" stroke-linecap="round"/>
<path d="M6.66699 8.75H10.8337" stroke="#7B818C" stroke-width="1.25" stroke-linecap="round"/>
<path d="M10.8333 13.334V16.2764C10.8333 16.5061 10.8333 16.6209 10.7543 16.6673C10.6752 16.7137 10.5671 16.6624 10.3509 16.5597L9.31574 16.0679C9.24259 16.0332 9.20601 16.0158 9.16667 16.0158C9.12732 16.0158 9.09075 16.0332 9.0176 16.0679L7.9824 16.5597C7.76619 16.6624 7.65809 16.7137 7.57904 16.6673C7.5 16.6209 7.5 16.5061 7.5 16.2764V13.709" stroke="#7B818C" stroke-width="1.25" stroke-linecap="round"/>
</svg>
