<svg width="20" height="22" viewBox="0 0 20 22" fill="none" xmlns="http://www.w3.org/2000/svg">
<path d="M6.49935 2.83338C6.18993 2.83338 5.89318 2.9563 5.67439 3.17509C5.4556 3.39389 5.33268 3.69063 5.33268 4.00005C5.33268 4.30947 5.4556 4.60622 5.67439 4.82501C5.89318 5.0438 6.18993 5.16672 6.49935 5.16672C6.80877 5.16672 7.10551 5.0438 7.32431 4.82501C7.5431 4.60622 7.66602 4.30947 7.66602 4.00005C7.66602 3.69063 7.5431 3.39389 7.32431 3.17509C7.10551 2.9563 6.80877 2.83338 6.49935 2.83338ZM3.19768 2.83338C3.43872 2.15026 3.88571 1.55872 4.47705 1.14031C5.06839 0.721887 5.77495 0.497192 6.49935 0.497192C7.22375 0.497192 7.93031 0.721887 8.52165 1.14031C9.11299 1.55872 9.55998 2.15026 9.80101 2.83338H18.166C18.4754 2.83338 18.7722 2.9563 18.991 3.17509C19.2098 3.39389 19.3327 3.69063 19.3327 4.00005C19.3327 4.30947 19.2098 4.60622 18.991 4.82501C18.7722 5.0438 18.4754 5.16672 18.166 5.16672H9.80101C9.55998 5.84984 9.11299 6.44138 8.52165 6.8598C7.93031 7.27822 7.22375 7.50291 6.49935 7.50291C5.77495 7.50291 5.06839 7.27822 4.47705 6.8598C3.88571 6.44138 3.43872 5.84984 3.19768 5.16672H1.83268C1.52326 5.16672 1.22652 5.0438 1.00772 4.82501C0.788932 4.60622 0.666016 4.30947 0.666016 4.00005C0.666016 3.69063 0.788932 3.39389 1.00772 3.17509C1.22652 2.9563 1.52326 2.83338 1.83268 2.83338H3.19768ZM13.4993 9.83338C13.1899 9.83338 12.8932 9.9563 12.6744 10.1751C12.4556 10.3939 12.3327 10.6906 12.3327 11.0001C12.3327 11.3095 12.4556 11.6062 12.6744 11.825C12.8932 12.0438 13.1899 12.1667 13.4993 12.1667C13.8088 12.1667 14.1055 12.0438 14.3243 11.825C14.5431 11.6062 14.666 11.3095 14.666 11.0001C14.666 10.6906 14.5431 10.3939 14.3243 10.1751C14.1055 9.9563 13.8088 9.83338 13.4993 9.83338ZM10.1977 9.83338C10.4387 9.15026 10.8857 8.55872 11.477 8.14031C12.0684 7.72189 12.775 7.49719 13.4993 7.49719C14.2237 7.49719 14.9303 7.72189 15.5216 8.14031C16.113 8.55872 16.56 9.15026 16.801 9.83338H18.166C18.4754 9.83338 18.7722 9.9563 18.991 10.1751C19.2098 10.3939 19.3327 10.6906 19.3327 11.0001C19.3327 11.3095 19.2098 11.6062 18.991 11.825C18.7722 12.0438 18.4754 12.1667 18.166 12.1667H16.801C16.56 12.8498 16.113 13.4414 15.5216 13.8598C14.9303 14.2782 14.2237 14.5029 13.4993 14.5029C12.775 14.5029 12.0684 14.2782 11.477 13.8598C10.8857 13.4414 10.4387 12.8498 10.1977 12.1667H1.83268C1.52326 12.1667 1.22652 12.0438 1.00772 11.825C0.788932 11.6062 0.666016 11.3095 0.666016 11.0001C0.666016 10.6906 0.788932 10.3939 1.00772 10.1751C1.22652 9.9563 1.52326 9.83338 1.83268 9.83338H10.1977ZM6.49935 16.8334C6.18993 16.8334 5.89318 16.9563 5.67439 17.1751C5.4556 17.3939 5.33268 17.6906 5.33268 18.0001C5.33268 18.3095 5.4556 18.6062 5.67439 18.825C5.89318 19.0438 6.18993 19.1667 6.49935 19.1667C6.80877 19.1667 7.10551 19.0438 7.32431 18.825C7.5431 18.6062 7.66602 18.3095 7.66602 18.0001C7.66602 17.6906 7.5431 17.3939 7.32431 17.1751C7.10551 16.9563 6.80877 16.8334 6.49935 16.8334ZM3.19768 16.8334C3.43872 16.1503 3.88571 15.5587 4.47705 15.1403C5.06839 14.7219 5.77495 14.4972 6.49935 14.4972C7.22375 14.4972 7.93031 14.7219 8.52165 15.1403C9.11299 15.5587 9.55998 16.1503 9.80101 16.8334H18.166C18.4754 16.8334 18.7722 16.9563 18.991 17.1751C19.2098 17.3939 19.3327 17.6906 19.3327 18.0001C19.3327 18.3095 19.2098 18.6062 18.991 18.825C18.7722 19.0438 18.4754 19.1667 18.166 19.1667H9.80101C9.55998 19.8498 9.11299 20.4414 8.52165 20.8598C7.93031 21.2782 7.22375 21.5029 6.49935 21.5029C5.77495 21.5029 5.06839 21.2782 4.47705 20.8598C3.88571 20.4414 3.43872 19.8498 3.19768 19.1667H1.83268C1.52326 19.1667 1.22652 19.0438 1.00772 18.825C0.788932 18.6062 0.666016 18.3095 0.666016 18.0001C0.666016 17.6906 0.788932 17.3939 1.00772 17.1751C1.22652 16.9563 1.52326 16.8334 1.83268 16.8334H3.19768Z" fill="#122144"/>
</svg>
