<svg width="48" height="48" viewBox="0 0 48 48" fill="none" xmlns="http://www.w3.org/2000/svg">
<g clip-path="url(#clip0_629_10555)">
<path d="M0.197742 23.5471C0.196448 27.6973 1.2807 31.7488 3.34202 35.32L0 47.5221L12.4875 44.2479C15.9282 46.1239 19.8021 47.1129 23.744 47.1144H23.7541C36.7363 47.1144 47.3046 36.5495 47.3101 23.566C47.3123 17.2737 44.864 11.3568 40.4169 6.9058C35.9692 2.45532 30.0554 0.00258727 23.7541 0C10.7697 0 0.202916 10.5635 0.197742 23.5471ZM7.63449 34.7049L7.16822 33.9648C5.20818 30.8482 4.17364 27.2467 4.17512 23.5486C4.17918 12.7569 12.9619 3.97701 23.7615 3.97701C28.9915 3.97922 33.9066 6.018 37.6034 9.71706C41.3001 13.4165 43.3342 18.3342 43.3329 23.5645C43.3281 34.3562 34.5453 43.1372 23.7541 43.1372H23.7464C20.2327 43.1354 16.7866 42.1918 13.7813 40.4086L13.0661 39.9844L5.65578 41.9273L7.63449 34.7049Z" fill="url(#paint0_linear_629_10555)"/>
<path d="M1.00871 23.475C1.0076 27.4678 2.05434 31.3664 4.04469 34.8027L0.818359 46.5436L12.8736 43.3932C16.2079 45.2023 19.9437 46.1503 23.7401 46.1506H23.7501C36.2827 46.1506 46.4845 35.9862 46.4898 23.4928C46.4922 17.4389 44.1289 11.7462 39.8352 7.46335C35.5421 3.18083 29.8326 0.821122 23.7492 0.818359C11.2151 0.818359 1.01407 10.9822 1.00889 23.475" fill="url(#paint1_linear_629_10555)"/>
<path d="M17.8661 13.6542C17.4252 12.6774 16.9611 12.6577 16.5418 12.6406C16.1984 12.6259 15.8059 12.627 15.4138 12.627C15.0212 12.627 14.3835 12.7741 13.8444 13.3608C13.3048 13.948 11.7842 15.367 11.7842 18.2532C11.7842 21.1393 13.8934 23.9288 14.1874 24.3205C14.4818 24.7116 18.2592 30.8239 24.2417 33.1753C29.2137 35.1294 30.2255 34.7408 31.3046 34.6428C32.3839 34.5452 34.7871 33.2241 35.2774 31.8543C35.768 30.4846 35.768 29.3105 35.6209 29.0652C35.4738 28.8208 35.0813 28.674 34.4927 28.3807C33.9041 28.0875 31.0102 26.6681 30.4708 26.4723C29.9311 26.2767 29.5388 26.1791 29.1463 26.7665C28.7537 27.3529 27.6266 28.674 27.2831 29.0652C26.9399 29.4573 26.5963 29.5062 26.0079 29.2127C25.4189 28.9184 23.5234 28.2997 21.2745 26.3014C19.5247 24.7464 18.3435 22.8262 18.0001 22.2388C17.6567 21.6523 17.9633 21.3344 18.2585 21.0421C18.5229 20.7792 18.8472 20.3571 19.1418 20.0146C19.4353 19.672 19.5332 19.4276 19.7295 19.0364C19.926 18.6448 19.8276 18.3022 19.6807 18.0088C19.5332 17.7153 18.3895 14.8141 17.8661 13.6542Z" fill="white"/>
</g>
<defs>
<linearGradient id="paint0_linear_629_10555" x1="2365.51" y1="4752.21" x2="2365.51" y2="0" gradientUnits="userSpaceOnUse">
<stop stop-color="#F9F9F9"/>
<stop offset="1" stop-color="white"/>
</linearGradient>
<linearGradient id="paint1_linear_629_10555" x1="2284.39" y1="4573.35" x2="2284.39" y2="0.818359" gradientUnits="userSpaceOnUse">
<stop stop-color="#1FAF38"/>
<stop offset="1" stop-color="#60D669"/>
</linearGradient>
<clipPath id="clip0_629_10555">
<rect width="47.3101" height="47.5221" fill="white"/>
</clipPath>
</defs>
</svg>
